<svg width="431" height="383" viewBox="0 0 431 383" fill="none" xmlns="http://www.w3.org/2000/svg">
<rect width="431" height="383" fill="#F5F5F5"/>
<path d="M346.992 230.558C345.113 253.566 327.126 271.192 299.339 271.192C295.757 271.118 294.328 270.396 294.104 266.482V253.566C294.169 250.458 295.278 249.534 299.339 249.529C309.104 250.059 312.226 248.991 319.609 243.071C326.991 237.151 328.871 218.314 319.609 217.776H298.937C287.124 217.776 283.634 216.161 283.366 204.59V168.262C283.039 157.456 285.833 154.043 297.594 154H333.032C344.289 153.991 347.177 157.529 346.992 169.339V230.558Z" fill="#FFE3CC"/>
<path d="M274.651 230.558C272.772 253.566 254.785 271.192 226.999 271.192C223.416 271.118 221.987 270.396 221.764 266.482V253.566C221.828 250.458 222.937 249.534 226.999 249.529C236.763 250.059 239.885 248.991 247.268 243.071C254.65 237.151 256.53 218.314 247.268 217.776H226.596C214.783 217.776 211.293 216.161 211.025 204.59V168.262C210.698 157.456 213.492 154.043 225.254 154H260.691C271.948 153.991 274.836 157.529 274.651 169.339V230.558Z" fill="#FFE3CC"/>
</svg>
