<svg width="456" height="297" viewBox="0 0 456 297" fill="none" xmlns="http://www.w3.org/2000/svg">
<path d="M18.7915 160.061C7.33756 204.781 -10.9051 250.055 25.7915 278.061C50.3389 296.796 96.2912 302.361 104.291 287.561C114.291 269.061 216.791 282.561 219.791 284.561C222.791 286.561 393.791 278.061 421.291 267.561C448.791 257.062 454.791 125.562 450.791 139.062C446.791 152.561 251.791 173.561 230.791 168.561C209.791 163.561 319.791 103.062 328.791 94.0615C337.791 85.0615 252.537 16.6973 190.291 15.0615C102.617 12.7574 40.5527 75.0992 18.7915 160.061Z" fill="#FCD8BE"/>
<path d="M350.116 0.26296C349.806 0.393511 349.431 0.621971 349.284 0.75252C349.088 0.932024 348.925 0.948343 348.582 0.817795C347.391 0.377192 345.384 0.801476 344.404 1.71532C344.176 1.91114 343.768 2.1396 343.491 2.18856C342.74 2.35175 341.859 3.16768 341.532 3.99993L341.255 4.73427H340.341C339.803 4.73427 339.15 4.86481 338.775 5.04432C337.942 5.41965 336.849 6.64355 336.604 7.4758C336.425 8.04695 336.343 8.12854 335.756 8.22645C334.989 8.34068 334.009 9.1403 333.699 9.90727C333.389 10.6416 333.422 11.5391 333.797 12.3714L334.124 13.0731L333.699 13.7095C333.161 14.5091 333.112 15.6677 333.569 16.1736C333.928 16.5816 334.891 17.0222 335.103 16.8916C335.184 16.8427 335.331 17.2343 335.429 17.7402C335.772 19.5026 336.898 23.2559 337.355 24.1534C337.746 24.9041 337.877 25.051 338.203 25.002C338.726 24.953 339.574 25.2468 339.9 25.6058C340.047 25.7527 340.357 26.5849 340.619 27.4335C341.092 29.0653 341.418 29.408 341.81 28.69C342.283 27.8088 342.152 23.2396 341.516 19.47C341.288 18.0992 341.304 17.9524 341.549 17.5607C341.744 17.2833 341.793 16.9732 341.728 16.6469C341.598 15.9288 341.761 15.6677 342.348 15.6677C342.626 15.6677 343.197 15.5046 343.588 15.2924C344.192 14.9987 344.404 14.7539 344.812 13.9217C345.122 13.2689 345.384 12.9262 345.514 12.9752C345.955 13.1384 346.803 12.5998 347.309 11.8329C347.603 11.3923 347.831 10.9517 347.831 10.8374C347.831 10.5274 348.827 9.77672 349.202 9.80936C350.41 9.89095 350.654 9.59722 350.622 8.06327C350.606 6.64355 351.062 6.20294 352.629 6.17031C353.837 6.13767 354.718 6.67618 356.66 8.66706C357.851 9.89095 358.373 10.5763 358.781 11.4249C359.156 12.1919 359.434 12.5672 359.63 12.5672C359.777 12.5672 360.201 12.2735 360.544 11.9308C361.555 10.919 361.751 9.69513 361.098 8.43859C360.821 7.90008 359.662 7.01887 359.222 7.01887C358.944 7.01887 358.912 6.9536 359.042 6.48036C359.238 5.68075 359.173 4.53844 358.879 3.96729C358.716 3.67356 358.341 3.23295 357.998 2.98817C357.476 2.58021 357.264 2.53125 356.252 2.53125H355.093L354.604 1.71532C353.706 0.246643 351.666 -0.406103 350.116 0.26296Z" fill="#EC6608"/>
<path d="M355.502 13.171C354.996 13.3668 354.359 13.9053 354.359 14.1501C354.359 14.3622 354.506 14.3949 355.306 14.2806C355.812 14.2154 356.628 14.1011 357.117 14.0522C357.607 14.0032 358.031 13.8727 358.064 13.7584C358.227 13.2852 356.35 12.8609 355.502 13.171Z" fill="#EC6608"/>
<path d="M345.954 15.7982C344.959 16.2551 343.768 17.7891 344.388 17.7891C344.747 17.7891 348.011 15.9451 347.945 15.7656C347.847 15.4555 346.656 15.4881 345.954 15.7982Z" fill="#EC6608"/>
<path d="M356.236 16.19C355.713 16.4837 355.175 17.0059 355.175 17.2507C355.175 17.4139 355.403 17.3486 355.942 17.0222C356.562 16.6632 356.921 16.5653 357.737 16.5653C358.308 16.5653 358.765 16.5163 358.765 16.4511C358.765 16.0268 356.872 15.831 356.236 16.19Z" fill="#EC6608"/>
<path d="M352.074 17.6097C352.074 17.7076 353.07 19.2579 354.277 21.0693C355.485 22.8806 356.48 24.4309 356.48 24.5125C356.48 24.643 355.974 24.9041 354.865 25.3121C354.147 25.5895 354.62 25.6221 355.517 25.3611C356.594 25.051 356.807 24.8715 356.807 24.3819C356.807 24.0066 355.648 22.1952 353.429 19.1273C352.237 17.4955 352.074 17.316 352.074 17.6097Z" fill="#EC6608"/>
<path d="M346.657 18.9479C346.053 19.2579 345.645 19.7801 345.743 20.0902C345.776 20.1718 346.053 20.0575 346.363 19.8291C347.016 19.3558 347.815 19.0947 348.729 19.0947C349.382 19.0784 349.382 19.0784 348.974 18.85C348.403 18.5236 347.375 18.5562 346.657 18.9479Z" fill="#EC6608"/>
<path d="M356.431 19.0621C356.072 19.4537 356.088 19.9596 356.447 20.286C356.855 20.6613 357.394 20.6287 357.786 20.237C358.145 19.878 358.194 19.5516 357.949 19.0784C357.72 18.6704 356.79 18.6541 356.431 19.0621Z" fill="#EC6608"/>
<path d="M347.75 21.1507C347.359 21.5424 347.489 22.3909 347.979 22.6357C348.909 23.0926 349.774 21.8524 349.007 21.167C348.615 20.8243 348.093 20.808 347.75 21.1507Z" fill="#EC6608"/>
<path d="M351.732 27.8415C351.65 28.0863 351.634 28.5432 351.683 28.8696C351.928 30.224 352.597 30.8604 353.739 30.8278L354.441 30.8115L353.87 30.6972C352.629 30.4361 352.074 29.7834 352.074 28.5269V27.8252L353.902 27.8578C355.893 27.8904 355.501 27.7109 353.168 27.5151C351.911 27.4172 351.895 27.4172 351.732 27.8415Z" fill="#EC6608"/>
<path d="M400.981 30.534C398.028 31.1378 395.58 31.6763 395.531 31.7253C395.482 31.7579 396.216 36.4087 397.163 42.055C398.109 47.6849 398.844 52.3357 398.827 52.352C398.795 52.3847 395.4 50.4427 391.288 48.0439C386.376 45.1555 383.374 43.5073 382.541 43.2136C380.501 42.4793 379.065 42.3977 370.482 42.5282L362.682 42.6425L362.094 41.3533C361.36 39.754 360.984 39.3298 360.315 39.3298C359.744 39.3298 345.482 41.8428 344.535 42.1039C343.67 42.3487 343.523 42.724 343.654 44.3069L343.768 45.6451L339.966 47.0322C337.877 47.7991 334.76 48.8762 333.031 49.431C331.317 49.9695 329.587 50.557 329.196 50.7365C328.804 50.9323 323.974 52.401 318.458 54.0165C312.942 55.6484 307.933 57.1171 307.329 57.2966L306.219 57.623L307.492 59.2874C309.271 61.6373 312.061 65.8639 313.97 69.095L315.602 71.8365L319.111 71.7386C321.036 71.6896 322.913 71.5754 323.272 71.4938C324.692 71.1511 331.431 70.1883 331.546 70.3025C331.611 70.3678 332.117 72.3587 332.688 74.7086L333.716 79.0167L336.164 78.9025C340.635 78.7066 348.289 79.392 350.736 80.2243C354.881 81.595 357.982 85.0709 359.597 90.0807C360.201 91.9574 360.723 94.3235 360.723 95.2374C360.723 95.9881 360.266 96.7713 359.532 97.3262C359.043 97.6852 357.688 97.8973 355.648 97.8973L354.424 97.9137L354.131 96.6408C353.429 93.6545 351.732 89.069 350.198 86.0011C349.007 83.6349 346.2 79.2288 346.2 79.7184C346.2 79.8 346.738 80.7791 347.407 81.9051C350.018 86.3601 352.058 90.9782 353.396 95.4332C353.918 97.1467 354.049 97.7994 353.918 97.93C353.641 98.2074 336.49 98.2074 333.798 97.93C331.154 97.6689 330.795 97.5057 330.289 96.4123C330.077 95.9391 329.848 95.2537 329.783 94.8784C329.702 94.3399 329.538 94.0788 328.984 93.6055C328.592 93.2792 328.102 92.7243 327.907 92.3653C327.662 91.941 327.303 91.5983 326.862 91.3862C326.095 91.0109 325.557 90.9619 325.687 91.2556C325.736 91.3699 326.585 93.2628 327.58 95.4495C328.576 97.6362 329.375 99.4476 329.343 99.4802C329.326 99.5129 327.401 98.0279 325.067 96.2002L320.841 92.8712L316.614 85.2341C304.865 63.9872 295.938 48.0929 295.808 48.2234C295.694 48.3376 304.669 64.7216 315.455 84.0755C318.099 88.8079 320.302 92.7896 320.351 92.9202C320.4 93.067 319.829 94.0298 318.899 95.3353C316.826 98.2727 315.129 100.835 310.658 107.803C303.755 118.557 300.557 122.897 295.4 128.495L294.355 129.637L293.866 129.278C292.675 128.429 298.239 128.478 203.167 128.495L114.704 128.511L113.692 129.017L112.664 129.523L110.967 127.711C106.479 122.914 103.281 118.475 94.9744 105.583C91.3843 100.002 89.4751 97.1467 86.7825 93.3771C86.6193 93.1323 87.1252 92.1205 90.1768 86.6538C97.5038 73.5336 110.216 50.4754 111.048 48.7946C111.848 47.179 110.836 48.713 109.221 51.5687C106.773 55.8605 94.6644 77.6296 90.1278 85.8379L86.2929 92.7733L84.4326 94.2746C83.0618 95.368 82.556 95.6943 82.5233 95.4985C82.507 95.3516 82.6702 94.193 82.8823 92.9365C83.1108 91.6799 83.2577 90.6355 83.2413 90.6029C83.2087 90.5866 82.507 90.7171 81.6747 90.913C80.0755 91.2883 79.5207 91.6799 78.819 92.8712C78.6395 93.1649 78.2642 93.5729 77.9867 93.7524C77.5788 94.0135 77.4319 94.2909 77.2034 95.1721C76.8771 96.4123 76.3875 97.2609 75.8 97.5383C74.8536 97.9789 71.3124 98.1421 62.2882 98.1258C57.0173 98.1258 53.1987 98.0605 53.1008 97.9626C52.9703 97.832 53.7372 95.0416 54.5532 92.6917C55.6792 89.4932 57.719 85.2014 59.7425 81.8072C60.4116 80.6812 60.9338 79.7184 60.8848 79.6857C60.7053 79.4899 57.9964 83.7654 56.8052 86.1153C55.3365 89.0526 53.9004 92.8712 53.1171 96.0207L52.6602 97.8321L51.6158 97.881C51.061 97.8973 50.0166 97.8647 49.3312 97.7831C48.6295 97.7178 48.0584 97.6852 48.0584 97.7178C48.0584 97.7505 48.3684 98.3706 48.7274 99.0723C49.5434 100.655 50.5062 101.569 51.6158 101.814C52.7255 102.059 60.1015 102.45 68.7014 102.728C74.1355 102.891 74.5925 102.94 74.7883 103.38C74.8862 103.609 74.9025 103.821 74.8372 103.87C74.6741 103.968 73.4828 106.889 72.4221 109.745C70.8392 114.085 69.599 118.883 69.3542 121.625C69.24 122.914 69.2236 122.914 68.7993 122.816C68.5709 122.767 67.6734 122.669 66.8248 122.62C63.0389 122.359 60.1505 124.203 59.0082 127.581C58.5023 129.066 58.6165 129.376 59.1224 127.94C59.6936 126.373 60.1015 125.721 61.1133 124.774C62.5493 123.436 64.6381 122.751 66.7269 122.963C71.035 123.371 79.896 126.194 88.8549 130.012C93.212 131.873 95.3334 133.015 96.7858 134.272C98.4013 135.659 99.0704 136.54 103.134 142.627C106.969 148.371 110.037 153.332 113.17 158.815C115.34 162.65 116.025 163.678 114.867 161.377C112.207 156.057 105.875 145.662 101.241 138.988L99.7884 136.883L101.371 136.997C102.742 137.095 103.134 137.062 104.048 136.768C105.043 136.458 105.5 136.116 109.319 132.933C112.452 130.322 113.708 129.36 114.279 129.18C114.981 128.935 123.777 128.919 203.82 128.952L292.593 129.001L293.262 129.36C293.621 129.555 295.645 131.155 297.75 132.933C302.466 136.915 302.645 137.013 305.289 136.964L307.215 136.948L306.921 137.388C306.758 137.617 305.452 139.575 304 141.729C300.785 146.527 298.207 150.655 295.743 154.947C293.507 158.831 291.402 162.797 291.663 162.65C291.761 162.584 292.185 161.883 292.609 161.099C295.955 154.931 302.172 145.009 307.084 137.976C309.271 134.859 311.098 133.276 314.329 131.758C322.864 127.728 334.695 123.664 339.705 123.044C343.817 122.522 346.885 124.415 348.011 128.152C348.207 128.756 348.403 129.229 348.435 129.18C348.599 129.017 347.799 126.7 347.326 125.949C345.808 123.583 343.393 122.408 340.407 122.604C339.607 122.669 338.661 122.751 338.334 122.816L337.714 122.93V122.033C337.714 119.177 335.642 111.85 333.145 105.877C332.443 104.164 332.231 103.495 332.329 103.282C332.508 102.972 333.52 102.858 337.339 102.76L339.493 102.695L339.901 104.425C340.129 105.371 340.358 106.595 340.407 107.134C340.505 108.211 340.57 108.733 340.815 110.887C341.043 112.698 341.549 113.694 342.789 114.706L343.67 115.424L343.703 116.664C343.752 118.867 343.817 119.095 345.221 121.412C347.228 124.758 349.137 128.87 349.137 129.817C349.137 129.963 351.259 131.465 354.163 133.374C357.003 135.267 359.418 136.964 359.728 137.323C360.038 137.682 360.479 138.368 360.707 138.873C361.115 139.755 361.131 139.836 361.099 143.035C361.082 146.511 360.756 154.148 360.217 164.249C359.695 174.154 359.614 175.509 359.173 181.71C359.007 184.066 358.839 186.329 358.668 188.5C358.521 190.362 358.372 192.157 358.222 193.884C356.896 209.124 355.426 219.084 353.788 224.024C352.841 226.831 352.287 227.533 350.23 228.463C345.188 230.731 332.525 231.286 310.38 230.176C303.314 229.817 296.82 229.458 295.547 229.36L294.437 229.279L294.551 229.882C294.78 231.123 295.808 234.288 296.346 235.398C297.554 237.895 300.1 239.592 303.739 240.31C304.653 240.49 310.331 240.849 312.469 240.865C312.714 240.865 312.747 241.061 312.747 242.66V244.455L217.691 244.488C165.406 244.52 116.27 244.537 108.503 244.537H94.3543L94.387 242.741C94.4033 241.762 94.4359 240.946 94.4522 240.93C94.4686 240.914 96.5737 240.832 99.1357 240.734C104.456 240.538 105.614 240.343 107.948 239.184C111.081 237.65 112.827 234.827 112.843 231.335V230.372L109.139 230.486C107.083 230.551 103.77 230.666 101.747 230.764C95.0887 231.025 78.1826 231.139 73.6786 230.927C61.7171 230.372 56.1198 229.148 54.5858 226.717C52.1543 222.882 49.9024 206.71 47.8952 178.544C47.7157 175.982 47.5362 173.877 47.5035 173.844C47.4056 173.746 46.9161 183.848 46.3939 196.723C46.1165 203.56 46.1165 224.579 46.3939 228.871C46.7039 233.848 47.0466 237.389 47.5035 240.538C47.732 242.105 47.9605 243.672 48.0094 243.998L48.1073 244.618L24.0537 244.667L0 244.7L24.0863 244.749L48.1726 244.781L48.5479 246.446C49.1028 248.959 50.0982 251.913 50.7509 253.022C51.9096 254.98 54.1289 256.482 56.9357 257.183C59.4814 257.82 68.424 258.097 78.819 257.853C84.6937 257.722 85.1017 257.689 86.603 257.298C89.4098 256.563 91.7923 255.046 92.9183 253.283C93.93 251.717 94.1259 250.868 94.2238 247.719L94.3217 244.863L203.395 244.814C287.893 244.798 312.502 244.83 312.6 244.977C312.665 245.091 312.73 246.25 312.73 247.572C312.73 248.894 312.812 250.33 312.926 250.754C313.856 254.654 317.43 257.232 322.766 257.853C324.137 257.999 343.181 258.065 345.465 257.918C348.582 257.722 350.328 257.412 351.846 256.792C355.73 255.209 356.986 253.349 358.504 246.984L359.01 244.863L378.021 244.814L397.016 244.781L397.506 245.255C397.783 245.516 398.207 245.793 398.452 245.842C399.039 245.989 399.97 245.663 400.361 245.173L400.671 244.781L428.299 244.749L455.943 244.7L428.364 244.618C403.968 244.553 400.786 244.504 400.818 244.292C400.835 244.161 401.112 242.644 401.422 240.946C402.662 234.223 404.017 224.399 403.821 223.534C403.756 223.224 403.494 222.686 403.266 222.311C403.021 221.935 402.026 220.303 401.03 218.688L399.235 215.734L400.133 215.147C400.622 214.82 401.03 214.478 401.03 214.396C401.03 214.314 397.75 209.5 393.736 203.691C386.523 193.263 386.425 193.117 386.474 192.399C386.49 191.991 386.915 187.666 387.404 182.771C389.281 164.069 391.174 144.095 392.071 133.407C392.545 127.956 392.561 124.121 392.169 122.228C391.68 119.944 390.472 115.358 389.673 112.829C389.265 111.507 388.955 110.43 388.987 110.397C389.02 110.381 389.15 110.299 389.297 110.218C389.509 110.087 389.46 109.663 388.791 106.644C388.057 103.348 388.041 103.185 388.269 102.418C388.432 101.863 388.481 101.145 388.416 100.051C388.351 98.7133 388.008 97.2119 386.034 89.6727L383.733 80.8607L382.28 72.2118C381.464 67.4468 380.763 63.1386 380.697 62.6328L380.599 61.6863L381.872 62.2738C385.348 63.873 396.902 68.9807 398.468 69.6335C400.688 70.531 401.977 70.8247 403.968 70.8247C408.39 70.8247 411.654 68.4912 412.845 64.4768C413.318 62.8939 413.465 60.952 413.269 59.3201C412.796 55.6321 410.006 42.6914 407.329 31.8232C407.117 30.9746 406.889 30.0771 406.84 29.816C406.775 29.5712 406.644 29.3917 406.53 29.3917C406.432 29.408 403.919 29.9139 400.981 30.534ZM86.244 94.3562C86.244 94.5357 92.2166 106.579 94.0443 110.071C99.7721 121.07 103.77 127.94 106.92 132.215L107.964 133.635L107.426 134.108C104.717 136.491 104.374 136.654 101.747 136.719L99.7068 136.768L98.9888 135.854C97.6833 134.157 95.8556 132.754 93.3426 131.53C87.5658 128.707 77.4972 124.97 71.7693 123.518L69.599 122.963V122.473C69.599 120.009 71.6714 112.878 74.9188 104.115C74.9678 103.968 75.2942 104.506 75.7511 105.469L76.5017 107.052H78.5253C79.6186 107.052 80.5324 107.003 80.5324 106.922C80.5324 106.677 82.3112 96.396 82.3601 96.3471C82.3928 96.3144 83.1924 95.7106 84.1225 94.9763C85.6565 93.8014 85.8523 93.7034 86.0481 93.9482C86.146 94.0951 86.244 94.2746 86.244 94.3562ZM325.149 96.6898C327.303 98.3379 329.212 99.7903 329.375 99.9045C329.538 100.019 329.799 100.41 329.946 100.769C330.093 101.128 330.583 101.83 331.023 102.336C331.758 103.168 331.954 103.609 333.047 106.595C335.38 113.025 336.637 117.284 337.224 120.646C337.404 121.723 337.551 122.685 337.551 122.783C337.551 122.914 337.029 123.093 336.278 123.256C331.301 124.334 319.356 128.723 313.497 131.628C311.343 132.705 310.266 133.521 308.536 135.381L307.215 136.785L305.207 136.719C303.494 136.67 303.086 136.605 302.466 136.279C301.666 135.854 299.202 133.847 299.202 133.619C299.202 133.537 299.626 132.917 300.165 132.215C302.874 128.642 307.492 120.711 312.91 110.316C314.77 106.742 320.824 94.5357 320.971 94.0298C321.036 93.834 321.118 93.6708 321.167 93.6708C321.2 93.6708 322.995 95.0253 325.149 96.6898ZM363.579 195.989L366.108 199.171L366.027 200.639C365.864 203.104 364.64 230.356 364.64 231.384V232.33L366.565 232.477L368.475 232.624L368.524 233.162C368.573 233.636 368.622 233.685 368.932 233.587C369.699 233.326 371.167 233.603 371.167 233.995C371.167 234.06 370.58 234.093 369.862 234.044L368.556 233.962V235.365C368.556 236.72 368.573 236.753 368.981 236.85C369.617 237.014 370.172 237.438 370.449 237.944C370.743 238.531 370.629 238.531 369.96 237.976C368.997 237.161 368.622 237.095 367.43 237.552C366.843 237.781 366.321 237.993 366.288 238.025C366.239 238.058 366.402 238.303 366.647 238.548C367.088 239.021 367.43 240.049 367.12 240.049C367.039 240.049 366.875 239.82 366.761 239.559C366.647 239.282 366.337 238.89 366.076 238.662C365.57 238.238 365.619 238.238 364.118 238.89L363.334 239.217L363.742 239.82C364.15 240.424 364.281 241.093 364.02 241.257C363.938 241.305 363.71 240.946 363.514 240.457C363.302 239.967 363.073 239.527 363.008 239.478C362.926 239.429 362.159 239.706 361.294 240.114C359.499 240.946 359.63 241.11 359.989 238.499C360.315 236.018 360.691 231.367 360.903 226.912C361.213 220.189 361.05 198.224 360.642 193.378C360.603 192.941 360.548 192.626 360.62 192.561C360.76 192.433 361.388 193.258 363.579 195.989ZM399.007 221.087C399.611 221.478 399.643 222.604 399.072 222.914C398.256 223.355 397.44 222.882 397.44 222.001C397.44 221.217 398.387 220.662 399.007 221.087ZM385.12 222.947C385.805 223.828 386.409 224.546 386.441 224.546C386.474 224.546 386.866 224.285 387.306 223.975C387.731 223.665 388.171 223.404 388.269 223.404C388.351 223.404 388.922 224.187 389.542 225.15C390.505 226.651 390.668 226.847 390.815 226.586C391.549 225.33 393.018 224.383 394.209 224.399C394.976 224.399 394.927 224.432 393.458 224.971C392.675 225.248 390.913 226.717 390.913 227.108C390.913 227.206 391.288 227.843 391.729 228.528L392.545 229.785L392.953 229.311C393.491 228.675 395.123 227.826 396.086 227.712C397.065 227.581 396.885 227.826 395.71 228.202C394.927 228.463 393.915 229.034 393.067 229.736L392.675 230.046L393.197 231.743C393.491 232.673 393.736 233.456 393.752 233.473C393.785 233.505 394.209 233.293 394.715 233.032C395.972 232.347 397.293 232.118 398.534 232.395L399.48 232.608L397.832 232.722C396.624 232.82 395.874 232.967 395.058 233.293C394.438 233.538 393.915 233.75 393.883 233.766C393.834 233.815 394.666 236.655 394.764 236.769C394.78 236.802 395.009 236.671 395.254 236.475C396.151 235.773 397.375 235.676 398.468 236.23C399.186 236.606 398.974 236.769 398.109 236.491C397.424 236.279 397.163 236.263 396.428 236.443C395.955 236.54 395.4 236.753 395.205 236.916L394.846 237.193L395.27 238.613L395.694 240.033L396.363 239.641C397.244 239.135 398.06 239.005 398.664 239.249C399.154 239.445 399.137 239.445 398.158 239.576C397.359 239.674 395.792 240.228 395.808 240.424C395.808 240.441 396.069 241.257 396.38 242.252C396.69 243.231 396.951 244.178 396.951 244.324C396.951 244.602 396.461 244.618 389.052 244.618C384.206 244.618 381.105 244.553 381.04 244.455C380.991 244.373 380.991 241.909 381.056 238.988L381.171 233.685H381.725C382.052 233.685 382.264 233.603 382.264 233.473C382.264 233.081 383.423 221.854 383.504 221.462C383.553 221.25 383.651 221.136 383.716 221.217C383.782 221.299 384.418 222.082 385.12 222.947ZM377.124 236.377C377.352 236.589 377.532 236.883 377.532 237.03C377.532 237.356 376.814 238.091 376.503 238.091C376.079 238.091 375.41 237.422 375.41 237.014C375.41 236.54 375.949 235.969 376.389 235.969C376.585 235.969 376.911 236.149 377.124 236.377Z" fill="#EC6608"/>
<path d="M121.688 44.8128C118.539 45.7429 116.45 47.4074 114.394 50.6548C113.888 51.4871 104.733 67.3161 93.7669 86.3437C92.1351 89.1831 90.7317 91.7288 90.6664 91.9899C90.4379 92.7569 90.8459 93.6544 91.825 94.5519C94.5829 97.065 98.1403 98.8111 101.812 99.4638C103.101 99.676 113.839 99.7086 204.375 99.7086C274.349 99.7086 305.811 99.6597 306.48 99.5291C309.842 98.9416 312.926 97.1955 315.276 94.5683C317.185 92.4468 318.311 94.9436 304.848 71.6406C298.5 60.6418 292.838 50.9486 292.267 50.0837C290.423 47.3258 288.187 45.6124 285.217 44.7148C283.602 44.2253 283.34 44.3885 284.842 44.9596C287.404 45.9061 288.579 46.6404 290.243 48.3049C291.108 49.1535 291.891 50.0184 291.989 50.2142C292.169 50.5569 292.153 50.5569 291.239 50.4753C290.733 50.4427 270.775 49.5778 246.901 48.5497L203.493 46.7057L173.549 47.9786C143.278 49.2841 140.471 49.3983 137.974 49.5288C137.207 49.5778 135.526 49.6431 134.221 49.692C132.915 49.741 131.235 49.8226 130.468 49.8552C129.701 49.8878 128.02 49.9694 126.714 50.0184C125.409 50.0673 123.842 50.1489 123.206 50.1816C122.586 50.2142 120.676 50.2958 118.963 50.3448C117.266 50.41 115.618 50.5243 115.34 50.5895C115.046 50.6711 114.802 50.7038 114.802 50.6711C114.802 50.6385 115.226 50.0673 115.748 49.4146C117.364 47.3748 118.963 46.2488 121.819 45.1228C124.054 44.2416 124.005 44.1274 121.688 44.8128Z" fill="#EC6608"/>
<path d="M65.9272 126.014C63.9526 126.39 62.1086 127.76 61.2274 129.507C60.5747 130.812 60.1994 132.248 59.2366 137.193C57.0662 148.371 56.8377 151.145 57.8658 153.593C59.7098 157.95 64.9644 161.295 73.3358 163.449C74.5597 163.759 75.8489 164.151 76.2079 164.314C79.9775 166.06 110.363 173.942 123.369 176.569C126.73 177.239 128.183 177.385 127.661 177.01C127.514 176.896 123.728 174.203 119.24 171.021C111.505 165.538 111.065 165.195 110.885 164.575C110.232 162.421 107.736 156.71 105.435 152.124C101.779 144.83 98.4992 139.934 95.6924 137.584C93.5383 135.789 90.6499 134.076 84.7426 131.122C76.9912 127.255 69.7457 125.28 65.9272 126.014ZM71.2634 128.038C74.8535 128.789 79.3248 130.437 83.7145 132.623C90.6989 136.116 93.6362 137.927 95.7087 139.999C98.7603 143.051 102.252 148.697 107.621 159.19C108.731 161.344 109.873 163.531 110.167 164.053C110.461 164.559 110.673 165.097 110.624 165.228C110.477 165.571 109.857 165.701 109.221 165.489C108.927 165.391 106.854 164.918 104.602 164.428C98.6624 163.123 84.302 160.006 82.409 159.598C73.5969 157.738 64.1485 154.49 62.0923 152.646C60.9663 151.635 60.3952 149.513 60.1178 145.401C59.8567 141.68 60.0851 139.086 61.0153 135.136C62.1902 130.11 63.1204 128.56 65.3887 127.858C66.5636 127.483 69.0114 127.565 71.2634 128.038Z" fill="#EC6608"/>
<path d="M70.5784 135.365C67.3147 136.099 64.6547 138.727 63.8714 141.974C63.5451 143.312 63.6103 145.319 64.0346 146.674C64.72 148.926 66.6619 151.194 68.7181 152.108C72.1776 153.658 76.1104 152.956 78.754 150.313C79.9127 149.154 80.9407 147.327 81.1039 146.135C81.1855 145.548 81.1692 145.564 80.8918 146.38C79.8637 149.432 77.6444 151.586 74.7397 152.353C73.4994 152.695 71.2964 152.646 70.0562 152.255C68.0653 151.635 65.8623 149.807 64.9322 147.996C62.8107 143.785 64.5242 138.465 68.7018 136.426C71.5412 135.039 74.5928 135.185 77.1874 136.834C78.8846 137.911 80.5654 140.228 81.006 142.072C81.0876 142.431 81.1529 142.561 81.1692 142.366C81.1855 141.892 80.6307 140.326 80.1248 139.461C79.0967 137.715 77.318 136.279 75.3271 135.61C73.9727 135.153 71.9492 135.055 70.5784 135.365Z" fill="#EC6608"/>
<path d="M70.7579 140.277C69.2729 141.027 68.5059 142.431 68.6691 144.128C68.9465 147.277 72.6182 148.779 75.0007 146.739C75.6371 146.184 76.2736 145.123 76.2899 144.585C76.2899 144.454 76.1104 144.715 75.8982 145.172C74.7559 147.636 71.7207 148.11 69.893 146.086C68.5712 144.618 68.6691 142.578 70.1051 141.207C71.5248 139.869 73.6626 139.836 75.0497 141.125C75.3108 141.37 75.6861 141.925 75.8982 142.382C76.1104 142.822 76.2899 143.067 76.2899 142.904C76.2899 142.48 75.735 141.468 75.2128 140.93C74.0705 139.787 72.2755 139.526 70.7579 140.277Z" fill="#EC6608"/>
<path d="M81.2178 143.279C81.2178 143.59 81.2504 143.72 81.2994 143.557C81.332 143.41 81.332 143.149 81.2994 142.986C81.2504 142.839 81.2178 142.969 81.2178 143.279Z" fill="black"/>
<path d="M91.8903 143.932C88.6592 144.748 86.4072 147.669 86.4072 151.031C86.4072 154.637 88.8713 157.542 92.4288 158.162C96.3779 158.831 100.213 156.057 100.67 152.173L100.768 151.357L100.523 152.32C99.5764 156.008 96.1331 158.439 92.6573 157.852C88.496 157.134 85.8361 152.989 87.0273 149.056C87.6474 147.016 88.8387 145.629 90.8133 144.683C91.7924 144.21 92.0045 144.177 93.5874 144.177C95.8068 144.193 96.7696 144.552 98.2219 145.907C99.3642 146.967 100.148 148.273 100.523 149.742L100.768 150.704L100.67 149.888C100.376 147.441 98.5646 145.14 96.1984 144.242C95.1703 143.851 92.902 143.687 91.8903 143.932Z" fill="#EC6608"/>
<path d="M81.2178 144.748C81.2178 145.058 81.2504 145.189 81.2994 145.026C81.332 144.879 81.332 144.618 81.2994 144.454C81.2504 144.308 81.2178 144.438 81.2178 144.748Z" fill="black"/>
<path d="M92.853 147.669C91.7433 147.947 90.7316 148.926 90.5521 149.889C90.1278 152.14 91.4659 153.936 93.571 153.936C94.0769 153.936 94.697 153.821 94.9744 153.691C95.9046 153.201 96.7042 152.092 96.6879 151.308C96.6716 151.161 96.5736 151.325 96.4431 151.684C96.0025 152.956 94.4359 153.887 93.1794 153.658C92.5266 153.528 91.6944 152.973 91.2375 152.369C90.9764 152.01 90.8948 151.667 90.8948 150.802C90.8948 149.84 90.96 149.627 91.3517 149.105C92.7714 147.229 95.6598 147.686 96.4431 149.889C96.5736 150.248 96.6716 150.411 96.6879 150.264C96.7042 149.513 95.9046 148.371 95.056 147.93C94.5012 147.653 93.4405 147.522 92.853 147.669Z" fill="#EC6608"/>
<path d="M337.633 125.933C333.08 126.52 327.988 128.299 321.559 131.546C314.591 135.055 312.339 136.491 309.989 138.971C308.275 140.766 307.1 142.398 305.11 145.727C302.352 150.313 297.57 160.365 296.412 163.972L296.02 165.179L288.138 170.809C283.797 173.91 280.028 176.553 279.767 176.716C278.543 177.402 279.816 177.353 283.765 176.57C296.216 174.056 327.123 166.044 330.616 164.412C331.072 164.2 332.198 163.825 333.145 163.596C342.136 161.344 347.456 157.999 349.251 153.462C349.676 152.402 349.692 152.173 349.692 149.807C349.692 147.033 349.594 146.347 347.913 137.568C346.869 132.167 346.526 130.828 345.825 129.507C344.34 126.732 341.402 125.443 337.633 125.933ZM341.663 127.875C343.328 128.348 344.503 129.719 345.27 132.101C345.417 132.542 345.841 134.206 346.216 135.773C346.853 138.466 346.902 138.808 346.967 141.762C347.097 146.462 346.624 150.084 345.661 151.83C345.172 152.712 343.964 153.511 341.582 154.539C337.812 156.139 330.354 158.391 325.002 159.517C318.817 160.838 309.662 162.846 302.466 164.445C299.822 165.032 297.505 165.554 297.326 165.587C297.146 165.62 296.852 165.538 296.673 165.408C296.346 165.179 296.379 165.098 297.799 162.34C306.578 145.287 309.76 140.522 314.427 137.503C318.393 134.924 327.238 130.616 331.35 129.246C332.721 128.789 336.131 127.907 337.225 127.728C338.318 127.548 340.766 127.63 341.663 127.875Z" fill="#EC6608"/>
<path d="M332.982 135.283C329.408 135.92 326.308 139.02 325.9 142.382C325.802 143.1 325.835 143.051 326.112 142.007C326.569 140.326 327.189 139.298 328.429 138.041C331.089 135.365 334.875 134.728 338.335 136.377C339.575 136.98 341.566 138.971 342.169 140.211C343.067 142.088 343.312 144.161 342.855 145.972C342.055 149.105 339.852 151.39 336.752 152.32C335.495 152.695 333.276 152.663 331.97 152.255C329.18 151.39 326.797 148.844 326.047 145.923C325.835 145.14 325.818 145.107 325.883 145.678C326.096 147.441 327.368 149.66 328.837 150.868C330.534 152.238 332.378 152.907 334.532 152.907C337.029 152.907 339.053 152.075 340.815 150.296C342.708 148.403 343.524 146.249 343.377 143.524C343.083 138.188 338.253 134.353 332.982 135.283Z" fill="#EC6608"/>
<path d="M332.9 140.244C332.443 140.456 331.872 140.848 331.644 141.125C331.122 141.746 330.632 142.969 330.746 143.377C330.795 143.606 330.828 143.573 330.844 143.28C330.844 143.051 331.105 142.464 331.399 141.974C332.933 139.412 336.67 139.64 337.812 142.382C338.808 144.781 336.996 147.375 334.353 147.359C333.145 147.343 331.791 146.429 331.138 145.156C330.991 144.879 330.877 144.781 330.86 144.928C330.86 145.434 331.823 146.674 332.558 147.114C334.777 148.42 337.584 147.278 338.302 144.781C338.742 143.28 338.285 141.827 337.029 140.766C335.87 139.771 334.32 139.575 332.9 140.244Z" fill="#EC6608"/>
<path d="M311.685 143.997C309.107 144.634 306.708 147.196 306.463 149.578L306.382 150.378L306.594 149.562C307.165 147.441 308.666 145.613 310.576 144.699C311.604 144.21 311.8 144.177 313.399 144.177C315.618 144.193 316.581 144.552 318.066 145.923C319.812 147.555 320.661 149.905 320.269 152.026C319.551 155.877 315.961 158.488 312.305 157.819C309.499 157.297 307.426 155.372 306.627 152.532L306.382 151.684L306.463 152.467C306.578 153.577 307.247 154.898 308.258 155.975C310.527 158.423 314.052 158.978 317.038 157.362C318.066 156.791 319.551 155.192 320.041 154.099C321.281 151.39 320.759 148.224 318.702 146.07C316.858 144.128 314.264 143.361 311.685 143.997Z" fill="#EC6608"/>
<path d="M330.729 144.259C330.729 144.487 330.762 144.569 330.811 144.454C330.844 144.356 330.844 144.161 330.811 144.046C330.762 143.948 330.729 144.03 330.729 144.259Z" fill="black"/>
<path d="M312.828 147.669C311.62 147.963 310.445 149.056 310.462 149.888C310.478 150.133 310.527 150.101 310.69 149.725C310.984 149.056 311.947 148.224 312.73 147.995C314.362 147.506 316.336 149.04 316.336 150.802C316.336 151.961 315.292 153.266 314.133 153.576C312.86 153.935 311.294 153.152 310.674 151.847L310.445 151.357L310.543 151.847C310.804 153.054 312.045 153.952 313.481 153.952C314.558 153.952 315.471 153.479 316.092 152.597C316.516 151.994 316.581 151.765 316.581 150.802C316.581 149.872 316.516 149.595 316.124 149.024C315.455 147.995 313.986 147.392 312.828 147.669Z" fill="#EC6608"/>
<path d="M310.316 150.558C310.316 150.737 310.365 150.786 310.414 150.655C310.463 150.541 310.446 150.394 310.397 150.345C310.348 150.28 310.299 150.378 310.316 150.558Z" fill="black"/>
<path d="M57.9476 131.971C57.7355 132.721 57.0012 136.817 56.5606 139.853C55.9731 143.834 55.4998 148.11 55.1408 152.336C54.8797 155.518 54.6186 168.41 54.8145 168.214C54.8797 168.165 54.994 166.028 55.0756 163.482C55.4019 153.364 56.1526 145.156 57.605 135.544C57.9313 133.488 58.1435 131.775 58.1108 131.742C58.0782 131.693 57.9966 131.807 57.9476 131.971Z" fill="#EC6608"/>
<path d="M348.99 131.987C348.974 132.199 349.186 133.766 349.447 135.495C349.986 138.971 350.638 144.063 351.014 147.685C351.52 152.76 352.074 162.421 352.074 166.484C352.074 167.708 352.14 168.247 352.27 168.247C352.401 168.247 352.433 166.827 352.352 162.65C352.205 155.225 351.862 150.296 350.997 143.361C350.345 138.221 349.055 130.828 348.99 131.987Z" fill="#EC6608"/>
<path d="M180.891 132.689C169.876 132.884 162.892 133.129 148.091 133.815C140.764 134.157 128.525 135.316 126.55 135.871C123.124 136.834 120.627 140.358 120.888 143.867C120.937 144.601 121.231 145.776 121.639 147.033C122.014 148.126 122.308 149.056 122.308 149.072C122.308 149.105 122.144 149.17 121.949 149.203C121.606 149.268 121.622 149.268 121.998 149.301C122.389 149.317 122.503 149.513 123.385 151.635C127.122 160.773 132.099 167.366 137.125 169.879C139.328 170.988 148.809 173.273 157.066 174.676C164.475 175.949 174.511 177.092 181.381 177.467C182.328 177.516 183.323 177.597 183.584 177.63C186.554 178.038 212.484 178.054 216.792 177.646C217.103 177.614 218.359 177.532 219.567 177.483C220.774 177.418 222.292 177.336 222.912 177.304C223.548 177.255 224.723 177.189 225.523 177.141C226.339 177.092 227.367 177.01 227.808 176.977C228.264 176.945 229.244 176.863 230.011 176.814C231.545 176.716 232.964 176.602 234.09 176.488C234.498 176.439 235.787 176.341 236.946 176.243C238.121 176.145 239.394 176.047 239.802 175.998C240.21 175.949 241.711 175.802 243.147 175.672C244.583 175.541 246.378 175.362 247.145 175.264C247.912 175.182 250.001 174.954 251.796 174.774C264.117 173.485 266.075 173.077 271.754 170.548C272.586 170.189 273.418 169.879 273.63 169.879C273.891 169.879 273.924 169.83 273.761 169.732C273.581 169.618 273.614 169.569 273.891 169.471C274.544 169.275 276.747 167.496 278.069 166.109C281.316 162.715 284.417 157.623 286.865 151.635C287.534 150.019 287.909 149.317 288.089 149.317C288.284 149.317 288.301 149.285 288.138 149.187C287.974 149.072 288.089 148.599 288.611 147.049C289.41 144.617 289.574 143.181 289.182 141.664C288.79 140.146 288.203 139.069 287.158 138.008C286.081 136.915 284.988 136.23 283.699 135.871C281.724 135.332 269.746 134.174 262.158 133.815C248.581 133.162 240.846 132.901 228.052 132.672C218.163 132.493 191.091 132.493 180.891 132.689Z" fill="#EC6608"/>
<path d="M117.902 164.624C117.902 164.771 122.667 167.594 124.919 168.785C139.949 176.716 158.976 181.383 182.279 182.852C194.257 183.603 215.031 183.635 227.319 182.934C248.468 181.71 265.129 178.234 279.049 172.163C281.187 171.217 286.474 168.622 286.474 168.492C286.474 168.361 285.805 168.671 283.765 169.683C270.074 176.537 252.743 180.665 231.235 182.199C224.381 182.673 220.889 182.787 209.123 182.885C194.371 182.999 186.751 182.77 176.649 181.938C153.836 180.062 135.021 174.627 119.583 165.505C118.653 164.951 117.902 164.559 117.902 164.624Z" fill="#EC6608"/>
<path d="M62.5816 180.649C59.6443 181.008 57.327 182.493 55.6625 185.104C55.0914 186.002 54.406 187.731 54.4386 188.27C54.4386 188.433 54.6018 188.09 54.7976 187.503C55.3198 185.936 56.1358 184.68 57.4576 183.44C59.53 181.465 61.3414 180.894 65.0294 181.024C68.2279 181.155 84.2201 183.391 96.8507 185.479C110.477 187.731 123.287 190.31 134.204 192.986C136.929 193.655 139.198 194.161 139.23 194.128C139.393 193.965 132.719 192.219 126.469 190.767C115.209 188.172 100.571 185.447 86.57 183.358C81.0543 182.526 68.3747 180.845 66.1717 180.649C64.1156 180.47 64.1156 180.47 62.5816 180.649Z" fill="#EC6608"/>
<path d="M340.733 180.649C338.514 180.845 324.888 182.689 319.437 183.521C305.811 185.594 293.23 187.927 282.312 190.375C278.021 191.338 270.4 193.263 268.85 193.786C267.267 194.308 267.707 194.21 272.929 192.953C290.113 188.792 308.602 185.43 332.084 182.199C343.067 180.682 345.009 180.649 347.554 181.922C349.757 183.015 352.026 185.822 352.336 187.862C352.401 188.205 352.499 188.482 352.564 188.482C352.874 188.482 352.156 186.312 351.487 185.202C350.769 183.994 348.68 182.02 347.603 181.53C345.808 180.714 343.442 180.404 340.733 180.649Z" fill="#EC6608"/>
<path d="M61.1129 185.381C60.5255 185.447 59.7911 185.61 59.4647 185.74C58.1919 186.295 56.919 187.862 56.6416 189.216C56.4784 190.098 56.1357 200.639 56.1357 205.388V208.652L56.8211 210.055C57.3433 211.083 57.7676 211.687 58.4693 212.324C60.0359 213.792 63.7076 215.424 66.7918 216.044C68.6848 216.436 74.5758 217.089 79.3082 217.448C81.2012 217.578 83.1757 217.725 83.7142 217.774C84.2527 217.807 85.3624 217.888 86.162 217.937C86.978 217.986 88.1529 218.068 88.773 218.1C89.4094 218.149 90.5844 218.215 91.384 218.264C92.1999 218.312 93.3749 218.378 93.995 218.427C94.6314 218.476 95.9532 218.541 96.9323 218.59C97.9278 218.639 99.2822 218.72 99.9513 218.753C100.62 218.786 102.171 218.867 103.378 218.916C104.586 218.965 105.908 219.047 106.316 219.079C106.723 219.112 108.339 219.194 109.906 219.243C112.239 219.341 112.876 219.308 113.333 219.128C114.312 218.704 121.117 212.454 123.728 209.566C127.497 205.388 132.099 197.31 132.099 194.879V194.406L130.434 194.21C129.504 194.096 126.29 193.688 123.287 193.28C120.284 192.888 116.384 192.366 114.638 192.154C112.892 191.925 110.395 191.583 109.09 191.419C106.56 191.077 102.105 190.489 97.993 189.951C96.6059 189.771 94.9088 189.559 94.2397 189.461C93.5707 189.363 91.0413 189.037 88.6098 188.71C79.7325 187.552 77.9374 187.323 74.9022 186.932C73.205 186.703 71.5405 186.491 71.2305 186.442C70.9204 186.41 69.2233 186.181 67.4772 185.953C65.7311 185.724 63.936 185.496 63.4791 185.447C63.0385 185.398 62.549 185.333 62.4184 185.316C62.2879 185.284 61.7004 185.316 61.1129 185.381Z" fill="#EC6608"/>
<path d="M344.813 185.349C344.095 185.381 336.066 186.41 324.007 187.992C319.095 188.629 317.544 188.841 315.276 189.135C314.02 189.314 311.784 189.608 310.299 189.787C308.814 189.983 306.252 190.326 304.587 190.538C302.923 190.767 301.307 190.979 300.997 191.011C298.974 191.272 284.989 193.116 283.047 193.378C281.741 193.557 279.44 193.851 277.906 194.047C276.389 194.242 275.083 194.438 275.018 194.504C274.953 194.553 275.002 195.124 275.132 195.744C275.622 198.094 279.391 204.784 282.182 208.228C284.108 210.61 292.348 218.41 293.638 219.079C294.143 219.324 294.519 219.357 296.901 219.259C298.386 219.194 300.132 219.112 300.753 219.079C301.389 219.047 302.743 218.965 303.771 218.916C306.807 218.769 309.973 218.606 312.828 218.427C313.546 218.394 314.835 218.312 315.684 218.263C317.593 218.149 319.535 218.035 320.824 217.937C321.363 217.904 322.473 217.823 323.272 217.774C324.986 217.66 328.625 217.399 329.8 217.284C330.257 217.252 331.138 217.17 331.758 217.121C332.394 217.072 333.194 216.991 333.553 216.958C333.912 216.925 334.646 216.844 335.185 216.795C339.966 216.305 342.593 215.652 345.792 214.102C348.06 213.009 349.219 212.013 350.067 210.414C351.128 208.423 351.21 207.477 350.851 200.395C350.818 199.628 350.736 197.017 350.688 194.601C350.573 189.657 350.475 188.923 349.79 187.715C348.844 186.051 347.081 185.218 344.813 185.349Z" fill="#EC6608"/>
<path d="M144.894 190.244C144.942 190.342 149.153 190.44 155.06 190.505C160.608 190.554 166.646 190.669 168.49 190.734C171.428 190.832 170.742 190.865 162.779 190.946C153.347 191.044 152.416 191.109 149.561 191.827C145.334 192.904 142.772 194.455 139.362 197.963C135.249 202.222 125.295 212.111 122.961 214.265C120.905 216.158 119.077 217.725 117.315 219.128L116.842 219.52L117.331 219.226C119.567 217.97 126.796 211.263 135.722 202.206C138.937 198.926 142.07 195.891 142.674 195.45C145.742 193.214 149.544 191.925 154.146 191.599C155.354 191.517 167.87 191.354 181.953 191.24C203.543 191.093 211.229 191.093 230.746 191.305C252.678 191.55 254.016 191.583 255.713 191.893C258.895 192.48 261.49 193.492 263.856 195.091C265.505 196.201 266.353 197 270.531 201.374C277.058 208.228 287.616 218.051 289.64 219.177C290.488 219.634 290.39 219.536 289.118 218.606C286.49 216.664 277.107 207.705 270.612 200.933C268.099 198.306 265.668 195.874 265.194 195.515C262.322 193.329 259.45 192.105 255.469 191.387C253.771 191.077 252.76 191.044 244.453 190.946C236.523 190.865 235.739 190.832 238.579 190.734C240.374 190.669 246.412 190.554 252.009 190.505C257.982 190.44 262.208 190.342 262.257 190.244C262.322 190.146 257.769 190.13 250.377 190.195C243.801 190.244 230.583 190.359 221.004 190.44C210.592 190.538 196.558 190.538 186.163 190.44C176.568 190.359 163.35 190.244 156.773 190.195C149.397 190.13 144.828 190.146 144.894 190.244Z" fill="#EC6608"/>
<path d="M180.484 193.867C166.32 194.177 155.517 194.683 150.784 195.271C149.022 195.483 148.663 195.581 147.194 196.299C143.555 198.077 139.867 201.194 130.468 210.431C123.891 216.909 120.268 220.238 119.289 220.76C117.837 221.511 85.5424 221.527 70.3008 220.777C66.3517 220.581 66.1069 220.613 65.4705 221.462C65.3073 221.707 65.1278 222.213 65.0788 222.604C64.9809 223.583 65.4215 224.367 66.3354 224.824C67.0371 225.183 67.2003 225.199 72.0142 225.199C75.2617 225.199 76.9262 225.248 76.8609 225.362C76.7956 225.46 77.122 225.525 77.7094 225.525C78.2316 225.525 85.2323 225.607 93.2611 225.705L107.866 225.884L155.696 225.019L203.526 224.155L251.323 225.003L299.121 225.868L313.726 225.705C321.755 225.607 328.804 225.525 329.392 225.525H330.452L329.979 225.215C329.343 224.791 329.082 224.285 329.065 223.518C329.065 223.012 329.18 222.767 329.604 222.343C330.24 221.707 330.012 221.739 336.392 221.282C338.856 221.103 340.896 220.923 340.929 220.891C341.108 220.711 339.787 220.613 338.465 220.695C331.693 221.168 307.574 221.511 297.734 221.282C293.654 221.185 289.754 221.054 289.068 220.989C287.861 220.874 287.795 220.842 286.686 219.944C285.184 218.72 281.758 215.473 275.295 209.174C266.255 200.362 261.963 196.886 258.748 195.744C256.79 195.058 248.924 194.52 233.275 194.014C226.601 193.802 188.709 193.688 180.484 193.867Z" fill="#EC6608"/>
<path d="M61.1622 220.875C59.7751 221.478 59.6119 223.339 60.8685 224.546C61.3744 225.036 61.5539 225.101 62.7778 225.215C63.5284 225.281 64.328 225.346 64.5565 225.346L64.9971 225.362L64.377 224.742C63.2184 223.583 63.3979 221.723 64.736 221.119L65.3561 220.842L64.018 220.744C62.1413 220.597 61.766 220.613 61.1622 220.875Z" fill="#EC6608"/>
<path d="M342.528 220.793C341.99 220.842 341.729 220.907 341.941 220.924C342.137 220.94 342.561 221.201 342.871 221.511C343.344 221.984 343.426 222.18 343.426 222.816C343.426 223.796 343.1 224.563 342.512 225.003L342.039 225.362L343.671 225.264C345.498 225.15 346.069 224.922 346.641 224.057C346.902 223.681 347.016 223.273 347.016 222.719C347.016 222.05 346.934 221.837 346.461 221.331C345.923 220.744 345.874 220.711 344.699 220.695C344.046 220.679 343.067 220.728 342.528 220.793Z" fill="#EC6608"/>
</svg>
