<svg width="21" height="21" viewBox="0 0 21 21" fill="none" xmlns="http://www.w3.org/2000/svg">
<path d="M3.02198 0.0430851C2.68546 0.121645 2.38587 0.357325 2.23813 0.655025C2.18478 0.758392 2.05345 1.13465 1.94265 1.4861C1.83595 1.83756 1.74566 2.13112 1.74156 2.13526C1.73745 2.14353 1.66358 2.11045 1.5774 2.06497C1.44608 1.99881 1.33527 1.98227 0.998751 1.98227C0.764828 1.98227 0.526801 2.00294 0.461139 2.02775C0.0876835 2.16833 -0.1052 2.68517 0.0589561 3.08624C0.190281 3.40462 0.379061 3.52039 0.826386 3.54933L1.13828 3.57414L0.928984 3.92559C0.658126 4.38868 0.440619 4.89312 0.321606 5.35207C0.223112 5.71593 0.223112 5.76141 0.223112 7.56415C0.223112 9.38757 0.223112 9.40411 0.313398 9.54882C0.362645 9.63151 0.481658 9.74315 0.580152 9.7969C0.740204 9.88787 0.801763 9.90027 1.20805 9.90027C1.74156 9.90027 1.91392 9.83825 2.08218 9.57776C2.18888 9.41651 2.19299 9.38343 2.2053 8.77563L2.21761 8.14301H5.27502H8.32833V8.34148C8.32833 8.49033 8.35705 8.58956 8.44734 8.73014C8.60739 8.98236 8.83721 9.094 9.20246 9.094C9.3543 9.094 9.47742 9.10227 9.47742 9.11467C9.47742 9.12294 9.41586 9.23045 9.33789 9.35035C9.0383 9.82585 8.73461 10.5205 8.64022 10.9629L8.6156 11.0745L6.85913 11.0869C4.90567 11.1035 4.89336 11.1076 4.55684 11.397C4.33933 11.5831 4.23263 11.794 4.01923 12.4845C3.76478 13.3032 3.80172 13.237 3.64167 13.1543C3.44468 13.0509 2.75522 13.0344 2.5172 13.1254C2.23813 13.2329 2.00831 13.5595 2.00831 13.8489C2.00831 13.9895 2.0986 14.2252 2.20119 14.3451C2.36125 14.5394 2.52951 14.6097 2.87834 14.6345L3.19434 14.6552L3.00556 14.9446C2.7347 15.3622 2.50899 15.8625 2.38587 16.3215C2.27917 16.7226 2.27917 16.7308 2.26275 18.5501C2.25044 20.2991 2.25044 20.3859 2.32842 20.5637C2.38587 20.6878 2.47205 20.787 2.58696 20.8656C2.75522 20.9772 2.77985 20.9813 3.26 20.9813C3.73195 20.9813 3.76889 20.9772 3.92483 20.8697C4.208 20.6836 4.26546 20.5017 4.26546 19.8112V19.2241H8.36936H12.4733V19.8236C12.4733 20.2371 12.4897 20.4686 12.5307 20.5596C12.6005 20.7333 12.8016 20.9028 12.9986 20.9607C13.2038 21.0144 13.7619 21.0144 13.9589 20.9524C14.1559 20.8945 14.3816 20.6506 14.439 20.4356C14.5047 20.1999 14.4965 17.3304 14.4308 17.1981C14.4021 17.1402 14.3241 17.0823 14.2462 17.0575C14.1354 17.0285 14.0902 17.0327 13.9999 17.103L13.8891 17.1857L13.8768 17.8968L13.8686 18.6039H13.7291H13.5895L13.5608 18.2028C13.5321 17.7108 13.4541 17.4834 13.2571 17.2849C12.9534 16.9789 12.5636 16.8921 12.0259 17.0079C11.3119 17.1609 10.684 17.6405 10.3639 18.2814L10.2038 18.6039H8.36526H6.52671L6.36256 18.2814C6.14915 17.872 5.93575 17.6281 5.59102 17.3883C4.88515 16.9045 4.01102 16.8218 3.55548 17.2022C3.29694 17.4172 3.19434 17.6818 3.16561 18.178L3.14509 18.6039H3.00146H2.86192L2.88244 17.6818C2.89475 17.0079 2.91938 16.6936 2.97273 16.4952C3.06301 16.1478 3.37491 15.5028 3.69091 15.0149L3.93715 14.6345H8.36526H12.7934L13.0806 15.0811C13.2366 15.325 13.409 15.6062 13.4582 15.7096C13.5075 15.8129 13.5772 15.9287 13.6142 15.9659C13.7003 16.0693 13.9302 16.061 14.0328 15.9576C14.1805 15.8088 14.1395 15.6434 13.8317 15.1307L13.5485 14.6552L13.8645 14.6304C14.1805 14.6097 14.3693 14.5394 14.4883 14.403C14.6155 14.2583 14.6976 14.0474 14.7017 13.8655V13.6835H16.7249H18.744L18.7605 14.3162C18.7728 14.924 18.7769 14.957 18.8836 15.1183C19.0559 15.3788 19.2242 15.4408 19.7823 15.4408C20.2338 15.4408 20.2625 15.4367 20.4307 15.325C20.5457 15.2465 20.6318 15.1472 20.6893 15.0232C20.7632 14.8454 20.7673 14.7586 20.7508 12.9682L20.7385 11.0993L20.6318 10.7272C20.4923 10.2476 20.3692 9.97056 20.086 9.51161C19.9629 9.30901 19.8603 9.13121 19.8603 9.11881C19.8603 9.1064 19.9793 9.094 20.1229 9.094C20.4348 9.094 20.5744 9.04852 20.7385 8.89553C21.1694 8.49033 21.0504 7.81637 20.5087 7.58483C20.2789 7.48973 19.6469 7.50213 19.4171 7.6055C19.2899 7.66339 19.2365 7.67165 19.2242 7.63444C19.216 7.6055 19.1216 7.30366 19.0149 6.96462C18.7481 6.09219 18.5922 5.85651 18.1572 5.65391L17.952 5.55881L15.1613 5.5464L12.3707 5.534L12.2763 5.19495C12.1778 4.82696 11.9233 4.27291 11.6607 3.8429L11.4965 3.57414L11.8125 3.54933C12.2558 3.52039 12.4445 3.40462 12.5759 3.08624C12.74 2.68517 12.5471 2.16833 12.1737 2.02775C12.108 2.00294 11.87 1.98227 11.6361 1.98227C11.2996 1.98227 11.1887 1.99881 11.0574 2.06497C10.9712 2.11045 10.8974 2.14353 10.8933 2.13526C10.8892 2.13112 10.7989 1.83756 10.6922 1.4861C10.5814 1.13465 10.45 0.758392 10.3967 0.655025C10.2859 0.431749 10.0643 0.225014 9.80984 0.105106C9.62926 0.0224113 9.55539 0.0182762 7.6676 0.00587273C5.73466 -0.00653076 5.71824 -0.00653076 5.60744 0.0802975C5.52125 0.150589 5.49663 0.20434 5.49663 0.324247C5.49663 0.630217 5.41866 0.617813 7.51986 0.617813C9.57591 0.617813 9.63337 0.626081 9.80573 0.865896C9.85087 0.927917 10.0232 1.41582 10.1915 1.94506L10.4911 2.91259L8.4063 2.92499C7.25721 2.92912 5.37762 2.92912 4.22852 2.92499L2.14374 2.91259L2.44333 1.94506C2.61159 1.41582 2.78395 0.927917 2.82909 0.865896C2.94811 0.700506 3.18613 0.617813 3.56369 0.617813C3.93304 0.617813 4.01923 0.559927 4.01923 0.324247C4.01923 0.158857 3.9905 0.109241 3.86738 0.0430851C3.76478 -0.0106659 3.25179 -0.0106659 3.02198 0.0430851ZM1.32706 2.62729C1.3681 2.64383 1.39273 2.70171 1.39273 2.79268V2.93326H1.02337C0.699165 2.93326 0.649919 2.92499 0.612983 2.85056C0.580152 2.79268 0.580152 2.74306 0.612983 2.68517C0.649919 2.61489 0.699165 2.60248 0.961815 2.60248C1.12597 2.60248 1.29013 2.61489 1.32706 2.62729ZM12.0013 2.76787V2.91259L11.6238 2.92499L11.2421 2.93739V2.81749C11.2421 2.63142 11.3078 2.59835 11.673 2.61075L12.0013 2.62316V2.76787ZM10.9671 3.89252C11.3775 4.5334 11.6156 5.02543 11.7099 5.41823C11.7346 5.5216 11.7223 5.52987 11.5376 5.55881C11.3242 5.58775 11.0164 5.71179 10.9097 5.81103C10.8563 5.86064 10.725 5.88132 10.3926 5.88959C9.91243 5.89786 9.60874 5.98469 9.20656 6.22037C8.88646 6.40643 8.49248 6.83644 8.31191 7.20443L8.15186 7.5228H6.31741H4.48297L4.32291 7.20443C3.94946 6.46018 3.19434 5.94334 2.38177 5.88132C1.82774 5.83997 1.4707 6.0219 1.2573 6.45605C1.1588 6.65038 1.13418 6.76201 1.11776 7.1052L1.09314 7.5228H0.949504H0.809971L0.83049 6.62143C0.85101 5.6291 0.896153 5.40169 1.16701 4.80629C1.29834 4.52099 1.63486 3.92559 1.81132 3.66511L1.8893 3.55347H6.32152H10.7496L10.9671 3.89252ZM17.9602 6.25344C18.0341 6.29066 18.1243 6.37335 18.1654 6.43124C18.2146 6.51393 18.8343 8.37869 18.8343 8.45725C18.8343 8.46552 16.9588 8.47379 14.6689 8.47379C12.2681 8.47379 10.5034 8.45725 10.5034 8.43658C10.5034 8.4159 10.6388 7.96935 10.8071 7.44011C11.1272 6.41883 11.2052 6.27825 11.4678 6.20383C11.5376 6.18315 12.9698 6.16661 14.7099 6.17075C17.6073 6.17902 17.8371 6.18315 17.9602 6.25344ZM2.58286 6.53461C2.82088 6.58836 3.13689 6.74961 3.34618 6.9274C3.50624 7.05558 3.77299 7.41117 3.77299 7.48973C3.77299 7.50627 3.30925 7.5228 2.74291 7.5228H1.70873L1.72925 7.15895C1.74156 6.95635 1.77439 6.75375 1.79901 6.70413C1.90161 6.5098 2.19709 6.44364 2.58286 6.53461ZM10.4418 6.53874C10.4336 6.56768 10.3598 6.80336 10.2777 7.05558L10.1299 7.5228H9.49384C9.14911 7.5228 8.86183 7.50627 8.86183 7.48973C8.86183 7.46905 8.91929 7.36568 8.98905 7.25818C9.26402 6.84057 9.84267 6.5098 10.3269 6.49326C10.4172 6.48912 10.4541 6.50566 10.4418 6.53874ZM1.59792 8.67226C1.59792 9.02784 1.58151 9.21804 1.54867 9.25112C1.48712 9.31314 1.00696 9.31728 0.896153 9.25939C0.826386 9.21804 0.818179 9.16843 0.818179 8.68053V8.14301H1.20805H1.59792V8.67226ZM9.72365 8.22157C9.74417 8.26705 9.76469 8.34148 9.76469 8.38696C9.76469 8.46966 9.74007 8.47379 9.40355 8.47379C9.0383 8.47379 8.94391 8.44071 8.94391 8.3084C8.94391 8.18023 9.0383 8.14301 9.36251 8.14301C9.63337 8.14301 9.68672 8.15542 9.72365 8.22157ZM20.3692 8.23398C20.402 8.28773 20.402 8.32908 20.3692 8.37869C20.3322 8.44071 20.2543 8.45725 19.9465 8.46552L19.573 8.47793V8.35802C19.573 8.17196 19.6387 8.13888 19.9998 8.15128C20.2543 8.15955 20.3322 8.18023 20.3692 8.23398ZM19.413 9.60257C20.0573 10.6363 20.1476 10.967 20.1476 12.2653V13.0633H20.0039H19.8603V12.7202C19.8603 12.1165 19.6715 11.732 19.2693 11.5252C18.7851 11.2771 17.8699 11.4756 17.283 11.9594C17.0122 12.1826 16.7413 12.5382 16.6141 12.8318L16.5156 13.0633H14.7017H12.8878L12.8631 12.9682C12.5266 11.8229 12.3912 11.5418 12.0957 11.3392C11.7715 11.1159 11.7182 11.1076 10.4336 11.0828L9.23529 11.058L9.3502 10.7231C9.47742 10.3551 9.65389 10.0119 9.99862 9.45372L10.2284 9.094H14.6648H19.1011L19.413 9.60257ZM11.5047 11.7402C11.8249 11.8147 11.8987 11.947 12.2393 13.0303L12.543 14.0143H8.36526C5.0411 14.0143 4.18749 14.0019 4.2039 13.9606C4.21211 13.9358 4.35164 13.4975 4.50759 12.9889C4.66764 12.4803 4.8318 12.0131 4.87694 11.9511C4.95492 11.8395 5.08214 11.7692 5.27092 11.7278C5.43507 11.6906 11.3488 11.703 11.5047 11.7402ZM18.9985 12.0917C19.1832 12.1868 19.2447 12.348 19.2447 12.7326V13.0633H18.2146H17.1887L17.283 12.8938C17.398 12.6829 17.7427 12.3563 17.9643 12.2405C18.3419 12.0462 18.7892 11.9842 18.9985 12.0917ZM3.39543 13.7332C3.42416 13.7621 3.44468 13.8365 3.44468 13.8986V14.0143H3.07533C2.75112 14.0143 2.70187 14.0061 2.66494 13.9316C2.6321 13.8737 2.6321 13.8241 2.66494 13.7662C2.70187 13.696 2.75112 13.6835 3.02608 13.6835C3.21896 13.6835 3.3667 13.7042 3.39543 13.7332ZM14.0163 13.7166C14.0861 13.7621 14.1066 13.8613 14.0656 13.9399C14.0369 14.0019 13.9712 14.0143 13.6429 14.0143C13.2982 14.0143 13.253 14.0061 13.253 13.9399C13.253 13.8986 13.2817 13.8241 13.3187 13.7745C13.372 13.696 13.4172 13.6835 13.6757 13.6835C13.8399 13.6835 13.9917 13.7001 14.0163 13.7166ZM20.1476 14.2376C20.1476 14.7048 20.1394 14.7958 20.0819 14.8165C19.967 14.8619 19.4663 14.8413 19.4171 14.7917C19.3842 14.7586 19.3678 14.5684 19.3678 14.2128V13.6835H19.7577H20.1476V14.2376ZM4.65533 17.6322C4.97954 17.719 5.2545 17.8762 5.47611 18.1036C5.66079 18.2938 5.82494 18.5129 5.82494 18.5708C5.82494 18.5915 5.36531 18.6039 4.79897 18.6039H3.77299V18.3227C3.77299 17.6405 4.00281 17.4627 4.65533 17.6322ZM12.6744 17.6239C12.8549 17.7149 12.9165 17.8555 12.9452 18.24L12.9739 18.6039H11.9439C11.3775 18.6039 10.9138 18.5873 10.9138 18.5708C10.9138 18.4922 11.1805 18.1366 11.3406 18.0085C11.7551 17.6694 12.4035 17.4834 12.6744 17.6239ZM3.64987 19.7533C3.64987 20.1089 3.63346 20.2991 3.60063 20.3322C3.53496 20.3983 2.98504 20.3983 2.91938 20.3322C2.88655 20.2991 2.87013 20.1089 2.87013 19.7533V19.2241H3.26H3.64987V19.7533ZM13.8686 19.7244C13.8686 19.9973 13.8481 20.2578 13.8276 20.3032C13.7906 20.3694 13.7373 20.3818 13.4992 20.3818C13.0642 20.3818 13.0889 20.4149 13.0889 19.7781V19.2241H13.4787H13.8686V19.7244Z" fill="#EC6608"/>
</svg>
