<svg width="21" height="21" viewBox="0 0 21 21" fill="none" xmlns="http://www.w3.org/2000/svg">
<path d="M13.0713 0.0449848C10.0846 0.472006 7.73795 2.68102 7.13488 5.62911C7.02411 6.1711 6.98719 7.22633 7.05693 7.81759C7.36462 10.4947 9.21898 12.7735 11.779 13.6275C12.5667 13.8903 13.0344 13.9642 13.9903 13.9642C14.9749 13.9642 15.3605 13.9067 16.1851 13.6358C17.822 13.102 19.1595 12.0221 20.0415 10.5275C21.2313 8.51561 21.3174 5.97812 20.2631 3.87586C19.902 3.15321 19.5903 2.71387 19.02 2.12261C17.9697 1.04274 16.6897 0.361145 15.1759 0.0819387C14.6836 -0.00839329 13.5718 -0.028923 13.0713 0.0449848ZM14.819 0.743C16.222 0.927769 17.42 1.52314 18.4415 2.54963C19.0118 3.11625 19.3523 3.59255 19.6723 4.26593C20.3369 5.65374 20.4764 7.08262 20.099 8.56077C19.582 10.585 18.0477 12.2561 16.0867 12.9336C15.3072 13.2046 14.9379 13.2621 13.9903 13.2621C13.2764 13.2621 13.0877 13.2498 12.7472 13.1718C12.1482 13.0404 11.6436 12.8597 11.1144 12.5846C9.4118 11.7018 8.25488 10.1785 7.82821 8.24872C7.75026 7.90792 7.73795 7.71494 7.73795 7.00461C7.73385 6.09308 7.79129 5.71944 8.02513 5.00911C8.96872 2.14724 11.8364 0.348826 14.819 0.743Z" fill="#EC6608"/>
<path d="M13.3123 1.42467C11.4333 1.67513 9.79228 2.85355 8.98407 4.52057C8.60254 5.30482 8.45484 5.89608 8.42612 6.77886C8.3851 7.79304 8.5451 8.55675 8.97997 9.44774C9.79638 11.123 11.3307 12.248 13.1892 12.5313C13.7225 12.6176 14.6825 12.5847 15.1789 12.4697C18.1984 11.7758 20.0774 8.91397 19.4907 5.9125C19.2733 4.79978 18.7728 3.86362 17.9482 3.04242C17.1318 2.22534 16.2046 1.72441 15.0969 1.49858C14.6415 1.40825 13.7225 1.36719 13.3123 1.42467ZM14.9451 2.18017C15.9338 2.38547 16.7543 2.82481 17.46 3.53103C18.9492 5.0215 19.3225 7.23462 18.4036 9.12337C17.6036 10.7575 16.0241 11.8005 14.2107 11.8785C11.4251 12.0058 9.10715 9.78033 9.10715 6.98005C9.10715 5.66203 9.64048 4.41382 10.5882 3.49408C10.8015 3.28878 11.0846 3.04653 11.22 2.95209C11.782 2.57024 12.5697 2.25408 13.1687 2.16375C13.3369 2.13911 13.5215 2.11037 13.5789 2.10216C13.78 2.0652 14.6292 2.11447 14.9451 2.18017Z" fill="#EC6608"/>
<path d="M13.7934 2.87814C13.6662 2.9849 13.6621 2.99722 13.6621 3.30106C13.6662 3.62954 13.6949 3.71166 13.8549 3.79378C13.9985 3.87179 14.1134 3.85126 14.2406 3.72397C14.3513 3.61311 14.3595 3.58027 14.3595 3.31338C14.3595 3.07523 14.3431 3.00954 14.2693 2.92331C14.1257 2.75907 13.9493 2.74675 13.7934 2.87814Z" fill="#EC6608"/>
<path d="M11.057 4.02784C10.8888 4.19207 10.9175 4.38095 11.1431 4.6232C11.3565 4.85314 11.5083 4.90241 11.6847 4.81208C11.8242 4.74228 11.857 4.67247 11.857 4.4836C11.857 4.37274 11.8159 4.30704 11.6354 4.13459C11.3729 3.88823 11.2211 3.85949 11.057 4.02784Z" fill="#EC6608"/>
<path d="M16.3734 4.11817C16.2626 4.22903 16.1559 4.36863 16.1395 4.43433C16.0821 4.67248 16.32 4.91062 16.558 4.85314C16.6236 4.83672 16.7631 4.72996 16.8739 4.6191C17.1036 4.37685 17.1323 4.19618 16.9641 4.02784C16.7959 3.85949 16.6154 3.88824 16.3734 4.11817Z" fill="#EC6608"/>
<path d="M13.7647 4.64365L13.6621 4.7422V5.92472C13.6621 6.91015 13.6744 7.12366 13.7236 7.19757C13.7647 7.25916 13.978 7.34949 14.4211 7.4973C14.9995 7.69029 15.0734 7.70671 15.1842 7.66154C15.3319 7.59995 15.3852 7.50962 15.3852 7.32075C15.3852 7.12366 15.2662 7.03744 14.7821 6.8773L14.3595 6.74181V5.76048V4.77915L14.2406 4.66008C14.0847 4.50816 13.9042 4.49994 13.7647 4.64365Z" fill="#EC6608"/>
<path d="M9.92385 6.75419C9.77206 6.91021 9.76385 7.09088 9.90744 7.23048C9.9936 7.32081 10.0428 7.33313 10.3095 7.33313C10.5515 7.33313 10.6377 7.31671 10.7156 7.25101C10.8469 7.15247 10.8756 7.00876 10.8059 6.84452C10.7403 6.68849 10.6131 6.63511 10.2931 6.63511C10.0715 6.63511 10.0305 6.64743 9.92385 6.75419Z" fill="#EC6608"/>
<path d="M17.2679 6.75419C17.1407 6.88147 17.1202 6.99644 17.1981 7.14015C17.2802 7.30028 17.3622 7.32902 17.6904 7.33313C17.994 7.33313 18.0063 7.32902 18.113 7.20174C18.2443 7.04571 18.232 6.86915 18.0679 6.72545C17.9817 6.65154 17.9161 6.63511 17.6781 6.63511C17.4115 6.63511 17.3786 6.64333 17.2679 6.75419Z" fill="#EC6608"/>
<path d="M11.3845 9.16436C11.2122 9.25469 11.0522 9.41483 10.9742 9.57906C10.8881 9.75973 10.9496 9.93628 11.1219 10.0266C11.2737 10.1046 11.4009 10.0677 11.6019 9.89522C11.9342 9.61191 11.9629 9.27933 11.6675 9.15615C11.5034 9.08635 11.5322 9.08635 11.3845 9.16436Z" fill="#EC6608"/>
<path d="M16.3446 9.13965C16.2215 9.18893 16.123 9.34085 16.123 9.48456C16.123 9.57489 16.1764 9.65701 16.3405 9.82535C16.5292 10.0101 16.5866 10.043 16.7138 10.043C16.9107 10.043 17.0666 9.89515 17.0666 9.71449C17.0666 9.61184 17.0174 9.53383 16.8533 9.36138C16.6277 9.13555 16.4923 9.07396 16.3446 9.13965Z" fill="#EC6608"/>
<path d="M13.9206 10.158C13.7442 10.1867 13.6621 10.351 13.6621 10.6876C13.6621 10.9545 13.6744 11.0038 13.7647 11.09C13.9042 11.2337 14.0847 11.2255 14.2406 11.0736C14.3472 10.9669 14.3595 10.9258 14.3595 10.6917C14.3595 10.548 14.3349 10.3879 14.3062 10.3345C14.2488 10.2196 14.056 10.1333 13.9206 10.158Z" fill="#EC6608"/>
<path d="M0.340513 14.457C0.229743 14.5227 0.139487 14.6212 0.0861538 14.7362C0 14.9086 0 14.9661 0 17.1587C0 18.6409 0.0164102 19.4375 0.0451282 19.5155C0.102564 19.6674 0.278974 19.8522 0.430769 19.9179C0.508718 19.9508 1.41949 20.0288 2.90051 20.1273L5.24307 20.2833L5.48102 20.1602C5.68205 20.0575 5.73538 20.0082 5.82564 19.8276L5.9282 19.6141L6.52307 19.61C7.17948 19.6059 7.3723 19.5566 7.54051 19.3431L7.63076 19.2322L8.13128 19.2486L8.63589 19.2651L10.9867 20.0945C12.2831 20.5502 13.4523 20.9444 13.5877 20.969C14.0677 21.0635 14.7323 20.9362 15.1836 20.6652C15.442 20.5092 20.3405 16.588 20.6482 16.2882C21.3866 15.5779 20.8861 14.3707 19.8564 14.3789C19.7046 14.3831 19.5241 14.4118 19.4338 14.4487C19.3477 14.4857 18.9087 14.7854 18.4574 15.1139C18.0061 15.4424 17.6123 15.7216 17.5877 15.7339C17.5549 15.7462 17.5056 15.6846 17.4646 15.5902C17.3579 15.3521 17.0749 15.1098 16.8123 15.0359C16.5949 14.9743 10.7282 14.3543 10.3754 14.3543C10.0882 14.3543 9.7805 14.4652 9.36615 14.7115C8.83281 15.0277 8.76307 15.0482 8.13538 15.0523C7.64307 15.0523 7.58974 15.0441 7.54871 14.9743C7.5282 14.9291 7.43794 14.8511 7.35589 14.7978C7.2123 14.7115 7.14666 14.7033 6.51076 14.6869C5.96102 14.6787 5.81333 14.6623 5.79692 14.6171C5.78461 14.5842 5.69846 14.5103 5.6 14.457L5.42769 14.3543H2.97025H0.51282L0.340513 14.457ZM5.25128 17.2654C5.25128 19.1337 5.24307 19.4827 5.19384 19.5237C5.14871 19.5648 4.6482 19.5402 2.94564 19.4293C1.74359 19.3472 0.746666 19.2815 0.730256 19.2815C0.709743 19.2815 0.697435 18.3289 0.697435 17.1669V15.0523H2.97436H5.25128V17.2654ZM13.4974 15.3603C15.1343 15.5327 16.5169 15.6805 16.5661 15.6929C16.8615 15.7586 16.9559 16.1117 16.7425 16.3293L16.6236 16.4484H14.0308H11.4379L11.319 16.5674C11.1918 16.6947 11.1713 16.8097 11.2492 16.9534C11.3436 17.1341 11.3928 17.1423 12.1231 17.1464H12.8205L13.5631 17.7787C13.9733 18.1277 14.3672 18.4439 14.4328 18.4767C14.601 18.5629 14.8841 18.5588 15.0359 18.4685C15.1056 18.4274 16.1641 17.6555 17.3949 16.7563C18.6256 15.8612 19.6759 15.1057 19.7333 15.0852C19.8933 15.0236 20.1313 15.1139 20.2297 15.2699C20.32 15.4137 20.3118 15.6231 20.2174 15.738C20.1149 15.8612 14.962 19.9918 14.7938 20.0862C14.5231 20.2382 14.1333 20.3203 13.842 20.2915C13.6656 20.2751 12.8656 20.0123 11.241 19.4416C9.95281 18.99 8.8041 18.604 8.68922 18.5835C8.57435 18.5588 8.30769 18.5424 8.09845 18.5424H7.71281V17.1505V15.7586L8.31999 15.7421C8.98871 15.7216 9.08717 15.6929 9.55897 15.4095C9.94871 15.1673 10.2154 15.0523 10.3795 15.0523C10.4533 15.0523 11.8564 15.1919 13.4974 15.3603ZM7.00717 17.1546L7.01538 18.9119H6.48205H5.94871V17.1751C5.94871 16.2184 5.96102 15.4219 5.97743 15.4054C5.99384 15.3931 6.22769 15.3849 6.49846 15.389L6.99487 15.4013L7.00717 17.1546ZM15.6102 17.1833C15.5856 17.208 15.3764 17.3599 15.1426 17.5323L14.72 17.8403L14.3343 17.5077C14.121 17.327 13.9487 17.171 13.9487 17.1628C13.9487 17.1546 14.3302 17.1464 14.7979 17.1464C15.3272 17.1464 15.6308 17.1628 15.6102 17.1833Z" fill="#EC6608"/>
</svg>
