<svg width="21" height="21" viewBox="0 0 21 21" fill="none" xmlns="http://www.w3.org/2000/svg">
<path d="M4.0724 0.249984L1.8051 0.512807L1.06387 0.36135C0.658371 0.281166 0.274674 0.205438 0.213632 0.196528C0.113348 0.183165 0.104627 0.200983 0.0435846 0.503898C0.00870313 0.682083 -0.0087376 0.837996 0.00434295 0.851359C0.0130633 0.864723 0.418561 0.953815 0.902541 1.05627L1.77458 1.23446L4.14652 0.962725C5.45021 0.815722 6.69287 0.695447 6.90652 0.695447C7.5867 0.695447 8.34538 0.860269 8.96452 1.14536C9.20869 1.25673 13.5994 3.81369 13.6997 3.90278C13.7171 3.9206 13.5732 3.89833 13.3727 3.84933C12.7971 3.71569 11.9774 3.69787 11.3844 3.80478L10.8917 3.89387L10.4077 3.60432C10.1418 3.44396 9.79732 3.25241 9.63599 3.17222C9.34822 3.03413 9.34822 3.03413 8.51978 3.02077C7.78291 3.01186 7.67391 2.99849 7.52566 2.91831C7.32945 2.80694 7.30329 2.82476 7.12453 3.16331C7.04604 3.31923 7.01116 3.42614 7.03732 3.45286C7.06348 3.47514 7.73931 3.87605 8.54158 4.34825C9.34386 4.82044 10.0676 5.27035 10.1505 5.35499C10.2813 5.48418 10.3031 5.53318 10.3205 5.77373C10.338 6.00537 10.3249 6.06773 10.229 6.21474C10.0851 6.43747 9.854 6.54883 9.59239 6.52211C9.43106 6.50429 9.15637 6.36174 8.25381 5.82273C7.62595 5.45299 7.07656 5.15008 7.0286 5.15008C6.985 5.15008 6.63182 5.27926 6.24813 5.43517C5.41097 5.77818 5.04472 5.86282 4.38197 5.86282C3.47505 5.86282 3.06083 5.73364 2.11467 5.15453L1.53041 4.79371H0.784816H0.0392244V5.15008V5.50645H0.688892H1.33856L1.87922 5.83164C2.88207 6.44192 3.25704 6.55329 4.37761 6.55329C5.32377 6.55329 5.45457 6.52656 6.4269 6.1301L6.98064 5.90291L7.34689 6.11228C7.54746 6.2281 7.71315 6.33947 7.71315 6.36174C7.71315 6.38401 7.64339 6.53992 7.56054 6.71365C6.88908 8.06786 6.84111 9.68489 7.42538 11.146C7.90064 12.3399 8.98196 13.458 10.1461 13.9702C12.0995 14.8255 14.3101 14.4335 15.8275 12.959C16.6166 12.1929 17.1442 11.2307 17.3753 10.1393C17.4756 9.66708 17.4887 8.57124 17.3971 8.11241C17.153 6.85175 16.4728 5.68464 15.5353 4.92289C15.3827 4.79816 15.2563 4.66007 15.2563 4.61998C15.2563 4.41952 15.0993 4.10324 14.89 3.88051C14.72 3.69341 14.4496 3.51077 13.7302 3.08758C13.2157 2.78467 12.069 2.11202 11.1882 1.59083C9.51827 0.606355 9.22177 0.450442 8.67239 0.272257C8.08813 0.0762529 7.75675 0.0227976 7.03732 0.00497913C6.39637 -0.0128393 6.1522 0.00497913 4.0724 0.249984ZM9.26102 3.78251C9.45286 3.85824 10.024 4.18788 10.024 4.21906C10.024 4.23688 9.99353 4.26361 9.95429 4.27697C9.91068 4.29479 9.7014 4.20124 9.40926 4.03197C9.14765 3.88496 8.934 3.75132 8.934 3.74242C8.934 3.70678 9.13021 3.73351 9.26102 3.78251ZM13.2942 4.56207C13.8479 4.70907 14.3057 4.91398 14.7374 5.20354C15.6836 5.84055 16.3289 6.7582 16.6384 7.89859C16.7475 8.29059 16.7562 8.41087 16.7605 9.04788C16.7605 9.64035 16.7431 9.82744 16.6602 10.1526C16.5251 10.7095 16.3289 11.1638 16.028 11.6227C14.7461 13.5782 12.2826 14.2509 10.2246 13.2085C8.00528 12.0815 7.08528 9.3018 8.18405 7.0433C8.26689 6.86957 8.34102 6.72702 8.34538 6.71811C8.3541 6.7092 8.8686 6.99875 8.92528 7.04775C8.934 7.05221 8.8686 7.21257 8.7814 7.39967C8.51542 7.96986 8.4413 8.33514 8.43694 9.04788C8.43694 9.55571 8.45002 9.73835 8.5285 10.0279C9.12585 12.2775 11.3539 13.507 13.4991 12.7675C14.5717 12.4022 15.5092 11.4445 15.8667 10.3486C16.5905 8.15696 15.3871 5.88064 13.1852 5.27035C12.7099 5.13671 11.7725 5.13671 11.2972 5.27035L10.9789 5.35945L10.8961 5.19462C10.8481 5.10108 10.7609 4.96744 10.6999 4.89171L10.5909 4.75807L10.8612 4.66452C11.5806 4.42397 12.6053 4.37943 13.2942 4.56207ZM11.8989 6.24146V6.57556H12.2477H12.5966V6.23701V5.894L12.8233 5.92518C12.9454 5.943 13.1983 6.01428 13.377 6.08555C13.6997 6.21474 14.1662 6.49983 14.1662 6.56665C14.1662 6.58447 14.0659 6.70029 13.9482 6.82057L13.7302 7.03884L13.9787 7.29721L14.2273 7.55558L14.4627 7.31948L14.6938 7.08784L14.8028 7.22148C15.0339 7.50658 15.3435 8.30396 15.3435 8.61133C15.3435 8.70933 15.326 8.71378 15.0165 8.71378H14.6894V9.07015V9.42653H15.0165C15.326 9.42653 15.3435 9.43098 15.3435 9.52898C15.3435 9.83635 15.0339 10.6337 14.8028 10.9188L14.6938 11.0525L14.4627 10.8208L14.2273 10.5847L13.9787 10.8431L13.7302 11.1015L13.9482 11.3197C14.0659 11.44 14.1662 11.5558 14.1662 11.5737C14.1662 11.6405 13.6997 11.9256 13.377 12.0548C13.1983 12.126 12.9454 12.1973 12.8233 12.2151L12.5966 12.2463V11.9033V11.5647H12.2477H11.8989V11.9033V12.2463L11.6722 12.2151C11.5501 12.1973 11.2972 12.126 11.1185 12.0548C10.7958 11.9256 10.3293 11.6405 10.3293 11.5737C10.3293 11.5558 10.4295 11.44 10.5473 11.3197L10.7653 11.1015L10.5167 10.8431L10.2682 10.5847L10.0328 10.8208L9.80168 11.0525L9.69267 10.9188C9.46158 10.6337 9.15201 9.83635 9.15201 9.52898C9.15201 9.43098 9.16945 9.42653 9.47902 9.42653H9.80604V9.07015V8.71378H9.47466H9.13893L9.16945 8.49996C9.20869 8.19705 9.35258 7.78277 9.51391 7.50658C9.63163 7.30167 9.67523 7.26603 9.80168 7.25266C9.9194 7.2393 9.97609 7.26603 10.1069 7.39521L10.2682 7.55558L10.5167 7.29721C10.7653 7.03884 10.7653 7.03884 10.6824 6.95866C10.5952 6.87848 10.5952 6.87402 10.7478 6.69138C10.8307 6.59338 10.9222 6.4241 10.9528 6.32165C10.9964 6.15683 11.0269 6.12119 11.1882 6.05882C11.4149 5.96973 11.6242 5.91628 11.7812 5.91182L11.8989 5.90737V6.24146Z" fill="#EC6608"/>
<path d="M11.8982 8.10044V8.91118L11.6061 9.2141L11.3096 9.51701L11.5625 9.77538L11.8154 10.0293L12.2034 9.62393L12.5958 9.21855V8.2519V7.2897H12.247H11.8982V8.10044Z" fill="#EC6608"/>
<path d="M15.169 14.501C14.964 14.5455 14.5236 14.7014 14.1879 14.844L13.5775 15.1023L12.1604 15.1291L10.7434 15.1513L10.4948 15.2761C10.0327 15.5077 9.7318 15.971 9.71 16.4788C9.70564 16.5946 9.6882 16.6882 9.67512 16.6882C9.66204 16.6882 8.93825 16.2695 8.06621 15.7527C6.37882 14.7638 6.21313 14.6881 5.79892 14.7504C5.32366 14.8217 4.89636 15.1513 4.69579 15.5968C4.54754 15.9309 4.55626 16.4476 4.71323 16.7773C4.77863 16.9109 4.89636 17.0891 4.97484 17.1648C5.11437 17.3029 9.71 20.0425 10.3727 20.3855C11.1053 20.7597 11.8988 20.9646 12.7709 20.9958C13.2897 21.0136 13.6472 20.9824 15.714 20.7464L18.0728 20.4791L19.4855 20.6528C20.266 20.7464 20.907 20.8176 20.9113 20.8132C20.9331 20.7954 21.0116 20.1494 20.9985 20.1361C20.9898 20.1272 20.3314 20.0381 19.5335 19.9401L18.0859 19.7574L15.7227 20.0292C14.4234 20.1762 13.172 20.2964 12.9409 20.2964C12.204 20.2964 11.38 20.1004 10.7216 19.7663C10.2507 19.5258 5.61579 16.7862 5.4937 16.6704C5.43702 16.6214 5.3629 16.5145 5.33238 16.4343C5.10129 15.8864 5.65067 15.2805 6.17825 15.4943C6.26546 15.53 7.18545 16.0556 8.21446 16.6659C9.24782 17.2762 10.2158 17.8197 10.3727 17.8776C10.6518 17.9756 10.6954 17.9756 12.6095 17.98H14.5585V17.6237V17.2673H12.7621C11.0355 17.2673 10.9614 17.2628 10.7826 17.1737C10.2768 16.9243 10.2768 16.1625 10.7826 15.9264C10.9439 15.8507 11.0878 15.8418 12.2782 15.8418H13.5993L14.2402 15.579C15.2082 15.187 15.2823 15.1692 16.0192 15.1424C17.0308 15.1068 17.3752 15.2048 18.3955 15.8195L19.0234 16.1982H19.9957H20.968V15.8418V15.4854H20.0916H19.2152L18.6527 15.1469C17.9813 14.7415 17.5801 14.5767 17.0656 14.4831C16.5424 14.3896 15.6442 14.3985 15.169 14.501Z" fill="#EC6608"/>
</svg>
