<svg width="17" height="17" viewBox="0 0 17 17" fill="none" xmlns="http://www.w3.org/2000/svg">
<path fill-rule="evenodd" clip-rule="evenodd" d="M2.57664 0.93675C1.98742 0.354417 1.03211 0.354417 0.442891 0.93675C-0.146328 1.51908 -0.146328 2.46323 0.442891 3.04557L5.96744 8.50556L0.442891 13.9656C-0.146328 14.5479 -0.146328 15.492 0.442891 16.0744C1.03211 16.6567 1.98742 16.6567 2.57664 16.0744L8.10119 10.6144L13.4306 15.8815C14.0198 16.4638 14.9751 16.4638 15.5643 15.8815C16.1536 15.2992 16.1536 14.355 15.5643 13.7727L10.2349 8.50556L15.5643 3.23844C16.1536 2.6561 16.1536 1.71196 15.5643 1.12962C14.9751 0.547288 14.0198 0.547287 13.4306 1.12962L8.10119 6.39675L2.57664 0.93675Z" fill="#FF0000"/>
</svg>
