<svg width="29" height="32" viewBox="0 0 29 32" fill="none" xmlns="http://www.w3.org/2000/svg">
<path d="M13.461 0.0645981C11.4573 0.295959 9.37925 1.15262 7.82225 2.39071C5.95508 3.88518 4.60898 5.87988 3.96385 8.12471C3.63508 9.2565 3.57925 9.71297 3.54203 11.5013L3.50481 13.2209L2.91551 13.2584C2.57433 13.2834 2.20834 13.346 2.04706 13.4085C1.33989 13.6961 0.750588 14.2339 0.384599 14.9217C0.00620321 15.6408 0 15.7221 0 19.0737C0 21.9251 0.00620321 22.1439 0.124064 22.5128C0.421818 23.4946 1.19102 24.2699 2.15872 24.5701C2.5185 24.6826 2.73562 24.6951 4.38567 24.6951H6.21561L6.42652 24.4825L6.63743 24.2699V19.0549C6.63743 13.8587 6.63743 13.8462 6.50717 13.6273C6.30246 13.2897 6.22182 13.2584 5.62011 13.2522H5.07422L5.10524 11.6702C5.13626 9.8818 5.2107 9.37531 5.58289 8.24352C6.65604 4.98571 9.32342 2.55954 12.6545 1.80918C14.3728 1.4215 16.3641 1.55906 17.9893 2.1656C21.1591 3.35367 23.3427 5.88614 24.1367 9.28151C24.2483 9.75674 24.2732 10.1069 24.298 11.5451L24.329 13.2522H23.8079C23.2062 13.2522 23.0573 13.3209 22.8836 13.7149C22.772 13.9588 22.7658 14.2214 22.7658 19.0549C22.7658 24.6326 22.7472 24.4012 23.138 24.6013C23.2558 24.6639 23.4978 24.6951 23.8513 24.6951C24.3848 24.6951 24.3848 24.6951 24.3104 24.8327C24.1677 25.1016 23.2248 25.9895 22.741 26.3084C21.8725 26.8774 20.8366 27.2339 19.8441 27.3026L19.3044 27.3402L19.261 27.1276C19.2362 27.0087 19.1059 26.6773 18.9694 26.3897C18.7647 25.9645 18.622 25.7581 18.2126 25.3517C17.6419 24.7827 17.1643 24.5138 16.3517 24.3075C14.4659 23.826 12.4126 25.0015 11.8109 26.9087C11.4883 27.9342 11.5628 28.8409 12.0404 29.8163C12.7166 31.1983 14.2302 32.0924 15.7251 31.9924C16.7487 31.9236 17.8218 31.4046 18.4545 30.6793C18.7833 30.3041 19.1989 29.5099 19.261 29.141C19.3044 28.8909 19.3106 28.8846 19.5525 28.8846C20.055 28.8846 21.1343 28.6845 21.7547 28.4782C23.4667 27.9029 24.8004 26.8774 25.855 25.3142L26.3016 24.6514L26.6056 24.6076C27.3251 24.5138 28.1005 24.1074 28.4727 23.6259C28.5782 23.5008 28.7395 23.2257 28.8325 23.0256L29 22.6629V19.3801V16.0973L28.8077 15.5908C28.299 14.2651 27.3313 13.3647 26.314 13.2709L25.948 13.2334L25.9108 11.6639C25.8736 10.0256 25.8116 9.44409 25.5324 8.37483C24.8252 5.64227 22.9705 3.15983 20.4706 1.60283C18.4918 0.377247 15.843 -0.204281 13.461 0.0645981ZM5.08663 18.9737V23.1319H3.92663C2.82866 23.1319 2.74182 23.1194 2.45027 22.9818C2.07807 22.8067 1.84856 22.5691 1.68107 22.1939C1.55701 21.9251 1.5508 21.7938 1.5508 19.0925C1.5508 15.8972 1.55701 15.8534 1.99743 15.3469C2.42545 14.8592 2.56813 14.8154 3.92663 14.8154H5.08663V18.9737ZM26.3264 14.8779C26.6366 14.9905 27.0212 15.4282 27.2383 15.8909L27.4492 16.3474L27.4678 19.2238C27.4802 21.1497 27.4678 22.1752 27.4244 22.3315C27.3872 22.4566 27.2569 22.6442 27.139 22.7505C26.7979 23.0506 26.4133 23.1319 25.2967 23.1319H24.3166V18.9737V14.8154H25.2409C25.7495 14.8154 26.2396 14.8404 26.3264 14.8779ZM16.4509 25.9582C16.9037 26.1708 17.3938 26.6586 17.6047 27.1213C17.7536 27.4402 17.7722 27.5528 17.7722 28.1343C17.7722 28.7033 17.7536 28.8346 17.6171 29.1035C17.307 29.7476 16.637 30.2415 15.9112 30.3791C14.9249 30.5604 13.8456 29.9789 13.4175 29.0347C12.8344 27.7403 13.4796 26.2959 14.8443 25.8457C15.2599 25.7081 16.0229 25.7644 16.4509 25.9582Z" fill="black"/>
</svg>
