<svg width="95" height="95" viewBox="0 0 95 95" fill="none" xmlns="http://www.w3.org/2000/svg">
<circle cx="47.5" cy="47.5" r="47.5" fill="#EC6608"/>
<path d="M27.9147 20.1128C27.0333 20.3186 26.2487 20.9359 25.8618 21.7155C25.722 21.9863 25.3781 22.9717 25.0879 23.8922C24.8084 24.8126 24.572 25.5815 24.5612 25.5923C24.5505 25.614 24.357 25.5274 24.1313 25.4082C23.7873 25.235 23.4971 25.1917 22.6158 25.1917C22.0031 25.1917 21.3797 25.2458 21.2077 25.3108C20.2296 25.679 19.7245 27.0326 20.1544 28.083C20.4984 28.9169 20.9928 29.2201 22.1643 29.2959L22.9812 29.3608L22.4331 30.2813C21.7237 31.4942 21.154 32.8153 20.8423 34.0173C20.5843 34.9703 20.5843 35.0894 20.5843 39.8109C20.5843 44.5865 20.5843 44.6298 20.8208 45.0088C20.9498 45.2254 21.2615 45.5178 21.5194 45.6586C21.9386 45.8968 22.0999 45.9293 23.1639 45.9293C24.5612 45.9293 25.0127 45.7668 25.4533 45.0846C25.7328 44.6623 25.7435 44.5757 25.7758 42.9838L25.808 41.3269H33.8155H41.8123V41.8467C41.8123 42.2366 41.8875 42.4965 42.124 42.8647C42.5432 43.5252 43.1451 43.8176 44.1017 43.8176C44.4994 43.8176 44.8218 43.8393 44.8218 43.8718C44.8218 43.8934 44.6606 44.175 44.4564 44.489C43.6717 45.7344 42.8764 47.5536 42.6292 48.7123L42.5647 49.0047L37.9644 49.0372C32.8482 49.0805 32.8159 49.0914 31.9346 49.8494C31.3649 50.3367 31.0855 50.889 30.5265 52.6974C29.8601 54.8416 29.9569 54.6683 29.5377 54.4517C29.0218 54.181 27.2161 54.1377 26.5927 54.3759C25.8618 54.6575 25.2599 55.513 25.2599 56.271C25.2599 56.6392 25.4963 57.2565 25.765 57.5705C26.1842 58.0795 26.6249 58.2636 27.5385 58.3285L28.3661 58.3827L27.8717 59.1407C27.1623 60.2345 26.5712 61.5448 26.2487 62.7468C25.9693 63.7972 25.9693 63.8189 25.9263 68.5836C25.894 73.1643 25.894 73.3917 26.0982 73.8574C26.2487 74.1823 26.4744 74.4422 26.7754 74.6479C27.2161 74.9403 27.2805 74.9511 28.5381 74.9511C29.7742 74.9511 29.8709 74.9403 30.2793 74.6587C31.021 74.1714 31.1714 73.695 31.1714 71.8865V70.3488H41.9198H52.6681V71.919C52.6681 73.0019 52.7111 73.6083 52.8186 73.8466C53.0013 74.3014 53.528 74.7454 54.0439 74.897C54.5813 75.0378 56.0431 75.0378 56.559 74.8753C57.0749 74.7237 57.6661 74.0848 57.8165 73.5217C57.9885 72.9044 57.967 65.3891 57.795 65.0425C57.7198 64.8909 57.5156 64.7393 57.3114 64.6744C57.0212 64.5986 56.9029 64.6094 56.6665 64.7935L56.3763 65.0101L56.344 66.8727L56.3225 68.7244H55.9571H55.5916L55.5164 67.674C55.4412 66.3853 55.2369 65.7898 54.721 65.27C53.9256 64.4686 52.9046 64.2412 51.4965 64.5444C49.6263 64.9451 47.9818 66.2013 47.1435 67.8798L46.7243 68.7244H41.909H37.0938L36.6638 67.8798C36.1049 66.8077 35.546 66.1688 34.6431 65.5407C32.7944 64.2737 30.505 64.0571 29.312 65.0534C28.6348 65.6165 28.3661 66.3095 28.2909 67.609L28.2371 68.7244H27.861H27.4955L27.5493 66.3095C27.5815 64.5444 27.646 63.7214 27.7857 63.2016C28.0222 62.292 28.8391 60.6026 29.6667 59.3248L30.3116 58.3285H41.909H53.5065L54.2588 59.4981C54.6673 60.137 55.1187 60.8734 55.2477 61.1441C55.3767 61.4148 55.5594 61.718 55.6561 61.8155C55.8818 62.0862 56.4837 62.0646 56.7525 61.7938C57.1394 61.404 57.0319 60.9708 56.2258 59.628L55.4841 58.3827L56.3118 58.3177C57.1394 58.2636 57.6338 58.0795 57.9455 57.7221C58.2787 57.3431 58.4937 56.7908 58.5044 56.3143V55.8379H63.8034H69.0915L69.1345 57.4947C69.1668 59.0866 69.1775 59.1732 69.457 59.5955C69.9084 60.2778 70.3491 60.4402 71.8109 60.4402C72.9932 60.4402 73.0684 60.4294 73.5091 60.137C73.81 59.9312 74.0358 59.6713 74.1862 59.3465C74.3797 58.8808 74.3904 58.6534 74.3475 53.9644L74.3152 49.0697L74.0358 48.0951C73.6703 46.8389 73.3479 46.1134 72.6062 44.9114C72.2838 44.3807 72.0151 43.9151 72.0151 43.8826C72.0151 43.8501 72.3268 43.8176 72.703 43.8176C73.5198 43.8176 73.8853 43.6985 74.3152 43.2978C75.4438 42.2366 75.1321 40.4714 73.7133 39.865C73.1114 39.616 71.4562 39.6484 70.8543 39.9192C70.5211 40.0708 70.3813 40.0924 70.3491 39.995C70.3276 39.9192 70.0804 39.1286 69.8009 38.2407C69.1023 35.9557 68.6938 35.3385 67.5545 34.8079L67.0171 34.5588L59.7082 34.5263L52.3994 34.4938L52.1522 33.6058C51.8942 32.642 51.2278 31.191 50.5399 30.0647L50.11 29.3608L50.9376 29.2959C52.0984 29.2201 52.5929 28.9169 52.9368 28.083C53.3667 27.0326 52.8616 25.679 51.8835 25.3108C51.7115 25.2458 51.0881 25.1917 50.4754 25.1917C49.5941 25.1917 49.3039 25.235 48.9599 25.4082C48.7342 25.5274 48.5407 25.614 48.53 25.5923C48.5192 25.5815 48.2828 24.8126 48.0033 23.8922C47.7131 22.9717 47.3692 21.9863 47.2294 21.7155C46.9392 21.1308 46.3588 20.5893 45.6924 20.2753C45.2195 20.0587 45.026 20.0479 40.0818 20.0154C35.0193 19.9829 34.9763 19.9829 34.6861 20.2103C34.4604 20.3944 34.3959 20.5352 34.3959 20.8492C34.3959 21.6506 34.1917 21.6181 39.6949 21.6181C45.0798 21.6181 45.2302 21.6397 45.6817 22.2678C45.7999 22.4303 46.2513 23.7081 46.692 25.0942L47.4767 27.6282L42.0165 27.6607C39.007 27.6715 34.0842 27.6715 31.0747 27.6607L25.6146 27.6282L26.3992 25.0942C26.8399 23.7081 27.2913 22.4303 27.4095 22.2678C27.7212 21.8347 28.3446 21.6181 29.3335 21.6181C30.3008 21.6181 30.5265 21.4665 30.5265 20.8492C30.5265 20.4161 30.4513 20.2861 30.1289 20.1128C29.8601 19.9721 28.5166 19.9721 27.9147 20.1128ZM23.4756 26.881C23.5831 26.9243 23.6476 27.0759 23.6476 27.3142V27.6823H22.6803C21.8311 27.6823 21.7022 27.6607 21.6054 27.4658C21.5194 27.3142 21.5194 27.1842 21.6054 27.0326C21.7022 26.8485 21.8311 26.816 22.519 26.816C22.949 26.816 23.3789 26.8485 23.4756 26.881ZM51.432 27.2492V27.6282L50.4432 27.6607L49.4436 27.6932V27.3791C49.4436 26.8918 49.6156 26.8052 50.5722 26.8377L51.432 26.8702V27.2492ZM48.7235 30.1947C49.7983 31.8732 50.4217 33.1618 50.6689 34.1906C50.7334 34.4613 50.7011 34.483 50.2175 34.5588C49.6586 34.6346 48.8524 34.9595 48.573 35.2194C48.4333 35.3493 48.0893 35.4035 47.2187 35.4251C45.9611 35.4468 45.1658 35.6742 44.1124 36.2914C43.2741 36.7787 42.2422 37.905 41.7693 38.8687L41.3501 39.7026H36.5456H31.7411L31.3219 38.8687C30.3438 36.9195 28.3661 35.5659 26.238 35.4035C24.7869 35.2952 23.8518 35.7716 23.2929 36.9087C23.035 37.4177 22.9705 37.71 22.9275 38.6089L22.863 39.7026H22.4868H22.1214L22.1751 37.3419C22.2288 34.7429 22.3471 34.1473 23.0565 32.5879C23.4004 31.8407 24.2818 30.2813 24.7439 29.5991L24.9482 29.3067H36.5564H48.1538L48.7235 30.1947ZM67.0386 36.3781C67.2321 36.4755 67.4685 36.6921 67.576 36.8437C67.705 37.0603 69.328 41.9442 69.328 42.1499C69.328 42.1716 64.416 42.1933 58.4184 42.1933C52.1307 42.1933 47.5089 42.1499 47.5089 42.0958C47.5089 42.0417 47.8636 40.8721 48.3043 39.486C49.1426 36.8112 49.3469 36.443 50.0347 36.2481C50.2175 36.194 53.9686 36.1507 58.5259 36.1615C66.1142 36.1831 66.7161 36.194 67.0386 36.3781ZM26.7646 37.1144C27.388 37.2552 28.2157 37.6776 28.7638 38.1432C29.183 38.4789 29.8816 39.4102 29.8816 39.616C29.8816 39.6593 28.6671 39.7026 27.1838 39.7026H24.4752L24.529 38.7496C24.5612 38.219 24.6472 37.6884 24.7117 37.5584C24.9804 37.0495 25.7543 36.8762 26.7646 37.1144ZM47.3477 37.1253C47.3262 37.2011 47.1327 37.8183 46.9177 38.4789L46.5308 39.7026H44.8648C43.9619 39.7026 43.2096 39.6593 43.2096 39.616C43.2096 39.5618 43.36 39.2911 43.5428 39.0095C44.2629 37.9158 45.7784 37.0495 47.0467 37.0062C47.2832 36.9953 47.3799 37.0386 47.3477 37.1253ZM24.185 42.7131C24.185 43.6444 24.142 44.1425 24.0561 44.2291C23.8948 44.3916 22.6373 44.4024 22.3471 44.2508C22.1643 44.1425 22.1428 44.0125 22.1428 42.7347V41.3269H23.1639H24.185V42.7131ZM45.4667 41.5327C45.5205 41.6518 45.5742 41.8467 45.5742 41.9659C45.5742 42.1824 45.5097 42.1933 44.6283 42.1933C43.6717 42.1933 43.4245 42.1066 43.4245 41.7601C43.4245 41.4244 43.6717 41.3269 44.5209 41.3269C45.2302 41.3269 45.37 41.3594 45.4667 41.5327ZM73.3479 41.5652C73.4338 41.706 73.4338 41.8142 73.3479 41.9442C73.2511 42.1066 73.0469 42.1499 72.2408 42.1716L71.2627 42.2041V41.8901C71.2627 41.4027 71.4347 41.3161 72.3805 41.3486C73.0469 41.3703 73.2511 41.4244 73.3479 41.5652ZM70.8435 45.1496C72.531 47.8569 72.7675 48.7232 72.7675 52.1235V54.2135H72.3913H72.0151V53.3147C72.0151 51.7337 71.5206 50.7266 70.4673 50.1851C69.199 49.5354 66.8021 50.0552 65.2651 51.3221C64.5557 51.9069 63.8463 52.8382 63.5131 53.6071L63.2552 54.2135H58.5044H53.7537L53.6892 53.9644C52.8078 50.9648 52.4531 50.2284 51.6792 49.6978C50.8301 49.113 50.6904 49.0914 47.3262 49.0264L44.1877 48.9614L44.4886 48.0843C44.8218 47.1205 45.284 46.2217 46.1869 44.7597L46.7888 43.8176H58.4077H70.0266L70.8435 45.1496ZM50.1315 50.7482C50.9699 50.9431 51.1633 51.2897 52.0554 54.1269L52.8508 56.7042H41.909C33.2029 56.7042 30.9672 56.6717 31.0102 56.5634C31.0317 56.4984 31.3972 55.3506 31.8056 54.0186C32.2248 52.6866 32.6547 51.4629 32.7729 51.3005C32.9772 51.0081 33.3104 50.824 33.8048 50.7157C34.2347 50.6183 49.723 50.6507 50.1315 50.7482ZM69.7579 51.6687C70.2416 51.9177 70.4028 52.3401 70.4028 53.3472V54.2135H67.705H65.0179L65.2651 53.7695C65.5661 53.2172 66.4689 52.3617 67.0493 52.0585C68.0382 51.5496 69.2098 51.3871 69.7579 51.6687ZM28.8928 55.9678C28.968 56.0436 29.0218 56.2385 29.0218 56.401V56.7042H28.0544C27.2053 56.7042 27.0763 56.6825 26.9796 56.4876C26.8936 56.336 26.8936 56.206 26.9796 56.0544C27.0763 55.8703 27.2053 55.8379 27.9254 55.8379C28.4306 55.8379 28.8176 55.892 28.8928 55.9678ZM56.7095 55.9245C56.8922 56.0436 56.9459 56.3035 56.8384 56.5093C56.7632 56.6717 56.5912 56.7042 55.7314 56.7042C54.8285 56.7042 54.7103 56.6825 54.7103 56.5093C54.7103 56.401 54.7855 56.206 54.8822 56.0761C55.022 55.8703 55.1402 55.8379 55.8173 55.8379C56.2473 55.8379 56.645 55.8812 56.7095 55.9245ZM72.7675 57.289C72.7675 58.5126 72.746 58.7509 72.5955 58.805C72.2945 58.9241 70.9832 58.87 70.8543 58.74C70.7683 58.6534 70.7253 58.1553 70.7253 57.224V55.8379H71.7464H72.7675V57.289ZM32.1925 66.1796C33.0416 66.407 33.7618 66.8185 34.3422 67.4141C34.8259 67.9122 35.2558 68.4862 35.2558 68.6378C35.2558 68.6919 34.052 68.7244 32.5687 68.7244H29.8816V67.988C29.8816 66.2013 30.4835 65.7356 32.1925 66.1796ZM53.1948 66.1579C53.6677 66.3962 53.8289 66.7644 53.9041 67.7715L53.9794 68.7244H51.2816C49.7983 68.7244 48.5837 68.6811 48.5837 68.6378C48.5837 68.432 49.2824 67.5007 49.7016 67.165C50.7871 66.2771 52.4854 65.7898 53.1948 66.1579ZM29.5592 71.7349C29.5592 72.6662 29.5162 73.1643 29.4302 73.251C29.2582 73.4242 27.818 73.4242 27.646 73.251C27.56 73.1643 27.517 72.6662 27.517 71.7349V70.3488H28.5381H29.5592V71.7349ZM56.3225 71.6591C56.3225 72.3738 56.2688 73.056 56.215 73.1752C56.1183 73.3484 55.9786 73.3809 55.3552 73.3809C54.2158 73.3809 54.2803 73.4675 54.2803 71.7999V70.3488H55.3014H56.3225V71.6591Z" fill="white"/>
</svg>
