<svg width="95" height="95" viewBox="0 0 95 95" fill="none" xmlns="http://www.w3.org/2000/svg">
<circle cx="47.5" cy="47.5" r="47.5" fill="#EC6608"/>
<path d="M54.2344 20.1181C46.4121 21.2365 40.2661 27.022 38.6866 34.7432C38.3965 36.1626 38.2998 38.9264 38.4825 40.4749C39.2883 47.4863 44.145 53.4547 50.8497 55.6914C52.9127 56.3797 54.1377 56.5732 56.6412 56.5732C59.2199 56.5732 60.23 56.4227 62.3897 55.7129C66.6768 54.315 70.1796 51.4867 72.4898 47.5724C75.6058 42.303 75.8314 35.6572 73.07 30.1513C72.1245 28.2586 71.3078 27.108 69.8143 25.5595C67.0637 22.7312 63.7113 20.9461 59.7464 20.2148C58.4571 19.9783 55.5452 19.9245 54.2344 20.1181ZM58.8116 21.9462C62.4864 22.4301 65.6238 23.9894 68.2993 26.6778C69.7928 28.1619 70.6846 29.4093 71.5227 31.1729C73.2634 34.8077 73.6287 38.55 72.6402 42.4213C71.2864 47.7229 67.2678 52.0997 62.1318 53.8741C60.0903 54.5838 59.1232 54.7344 56.6412 54.7344C54.7716 54.7344 54.2773 54.7021 53.3855 54.4978C51.8168 54.1537 50.4952 53.6805 49.1091 52.96C44.65 50.6479 41.62 46.6583 40.5025 41.604C40.2984 40.7115 40.2661 40.2061 40.2661 38.3457C40.2554 35.9583 40.4058 34.9797 41.0183 33.1193C43.4896 25.624 51.0002 20.9138 58.8116 21.9462Z" fill="white"/>
<path d="M54.8651 23.7312C49.9439 24.3872 45.646 27.4735 43.5293 31.8395C42.53 33.8935 42.1432 35.442 42.068 37.7541C41.9606 40.4103 42.3796 42.4105 43.5186 44.744C45.6568 49.1315 49.6753 52.0781 54.5427 52.8201C55.9395 53.0459 58.4538 52.9599 59.7539 52.6588C67.6621 50.8414 72.5832 43.346 71.0467 35.485C70.4773 32.5708 69.1664 30.1189 67.0067 27.9682C64.8685 25.8282 62.4401 24.5162 59.5391 23.9248C58.3464 23.6882 55.9395 23.5807 54.8651 23.7312ZM59.1415 25.7099C61.731 26.2476 63.88 27.3982 65.7281 29.2479C69.6284 33.1515 70.6062 38.9478 68.1994 43.8945C66.1041 48.1745 61.9674 50.9059 57.2182 51.1102C49.9225 51.4436 43.8516 45.6151 43.8516 38.281C43.8516 34.8291 45.2485 31.5599 47.7305 29.1511C48.2892 28.6134 49.0306 27.9789 49.3852 27.7316C50.8573 26.7315 52.9203 25.9035 54.489 25.6669C54.9295 25.6024 55.413 25.5271 55.5635 25.5056C56.09 25.4088 58.3141 25.5378 59.1415 25.7099Z" fill="white"/>
<path d="M56.1251 27.5373C55.792 27.8169 55.7812 27.8492 55.7812 28.645C55.792 29.5053 55.8672 29.7203 56.2863 29.9354C56.6623 30.1397 56.9632 30.086 57.2963 29.7526C57.5864 29.4622 57.6079 29.3762 57.6079 28.6772C57.6079 28.0535 57.5649 27.8814 57.3715 27.6556C56.9954 27.2255 56.5334 27.1932 56.1251 27.5373Z" fill="white"/>
<path d="M48.959 30.5487C48.5184 30.9789 48.5937 31.4736 49.1846 32.108C49.7433 32.7102 50.1409 32.8393 50.6029 32.6027C50.9683 32.4199 51.0542 32.2371 51.0542 31.7424C51.0542 31.4521 50.9468 31.28 50.474 30.8283C49.7863 30.1831 49.3888 30.1078 48.959 30.5487Z" fill="white"/>
<path d="M62.8822 30.7858C62.5921 31.0761 62.3128 31.4417 62.2698 31.6138C62.1193 32.2375 62.7425 32.8612 63.3657 32.7107C63.5377 32.6677 63.903 32.3881 64.1931 32.0977C64.7948 31.4632 64.87 30.9901 64.4295 30.5492C63.9889 30.1083 63.5162 30.1835 62.8822 30.7858Z" fill="white"/>
<path d="M56.0499 32.1622L55.7812 32.4203V35.5174C55.7812 38.0983 55.8135 38.6575 55.9424 38.851C56.0499 39.0124 56.6086 39.2489 57.769 39.6361C59.2841 40.1415 59.4775 40.1845 59.7676 40.0662C60.1544 39.9049 60.2941 39.6683 60.2941 39.1737C60.2941 38.6575 59.9825 38.4317 58.7146 38.0123L57.6079 37.6574V35.0872V32.5171L57.2963 32.2052C56.888 31.8073 56.4152 31.7858 56.0499 32.1622Z" fill="white"/>
<path d="M45.9908 37.6893C45.5933 38.0979 45.5718 38.5711 45.9478 38.9367C46.1735 39.1733 46.3024 39.2056 47.0008 39.2056C47.6348 39.2056 47.8604 39.1626 48.0646 38.9905C48.4084 38.7324 48.4836 38.356 48.3009 37.9259C48.129 37.5172 47.7959 37.3774 46.9578 37.3774C46.3776 37.3774 46.2702 37.4097 45.9908 37.6893Z" fill="white"/>
<path d="M65.2254 37.6893C64.8923 38.0227 64.8386 38.3238 65.0428 38.7001C65.2577 39.1195 65.4726 39.1948 66.3321 39.2056C67.1273 39.2056 67.1595 39.1948 67.4389 38.8614C67.7827 38.4528 67.7505 37.9904 67.3207 37.614C67.095 37.4204 66.9231 37.3774 66.2999 37.3774C65.6015 37.3774 65.5155 37.3989 65.2254 37.6893Z" fill="white"/>
<path d="M49.8164 44.0016C49.3651 44.2381 48.946 44.6575 48.7419 45.0877C48.5162 45.5608 48.6774 46.0233 49.1287 46.2598C49.5263 46.4642 49.8593 46.3674 50.3858 45.9157C51.2562 45.1737 51.3314 44.3027 50.5578 43.98C50.128 43.7972 50.2032 43.7972 49.8164 44.0016Z" fill="white"/>
<path d="M62.8068 43.9372C62.4844 44.0662 62.2266 44.4641 62.2266 44.8405C62.2266 45.0771 62.3662 45.2921 62.796 45.733C63.2903 46.2169 63.4407 46.303 63.7738 46.303C64.2896 46.303 64.6979 45.9158 64.6979 45.4427C64.6979 45.1738 64.5689 44.9695 64.1391 44.5179C63.5482 43.9264 63.1936 43.7651 62.8068 43.9372Z" fill="white"/>
<path d="M56.4582 46.6043C55.9961 46.6795 55.7812 47.1097 55.7812 47.9915C55.7812 48.6905 55.8135 48.8195 56.0499 49.0453C56.4152 49.4217 56.888 49.4002 57.2963 49.0023C57.5756 48.7227 57.6079 48.6152 57.6079 48.0022C57.6079 47.6259 57.5434 47.2065 57.4682 47.0667C57.3178 46.7656 56.8128 46.5397 56.4582 46.6043Z" fill="white"/>
<path d="M20.8918 57.8635C20.6017 58.0355 20.3653 58.2936 20.2256 58.5947C20 59.0464 20 59.1969 20 64.9394C20 68.8215 20.043 70.9078 20.1182 71.1121C20.2686 71.51 20.7306 71.9939 21.1282 72.1659C21.3324 72.252 23.7177 72.4563 27.5966 72.7144L33.7319 73.123L34.3551 72.8004C34.8816 72.5316 35.0212 72.4025 35.2576 71.9294L35.5262 71.3702L37.0842 71.3594C38.8034 71.3487 39.3084 71.2196 39.7489 70.6604L39.9853 70.3701L41.2962 70.4131L42.6178 70.4561L48.7746 72.6284C52.1699 73.822 55.2322 74.8544 55.5868 74.9189C56.8439 75.1662 58.5846 74.8329 59.7665 74.1231C60.4434 73.7145 73.2727 63.4447 74.0786 62.6596C76.0126 60.7992 74.7018 57.6376 72.0048 57.6591C71.6073 57.6699 71.1345 57.7452 70.8981 57.842C70.6725 57.9387 69.5228 58.7238 68.3409 59.5841C67.1589 60.4444 66.1274 61.1756 66.063 61.2079C65.977 61.2401 65.8481 61.0788 65.7406 60.8315C65.4613 60.2078 64.7199 59.5733 64.0322 59.3797C63.4627 59.2184 48.0977 57.5946 47.1736 57.5946C46.4215 57.5946 45.6156 57.885 44.5304 58.5302C43.1336 59.3582 42.9509 59.412 41.3069 59.4228C40.0176 59.4228 39.8779 59.4013 39.7704 59.2184C39.7167 59.1001 39.4803 58.8958 39.2654 58.756C38.8894 58.5302 38.7174 58.5087 37.052 58.4657C35.6122 58.4442 35.2254 58.4012 35.1824 58.2829C35.1502 58.1968 34.9245 58.0033 34.6667 57.8635L34.2154 57.5946H27.7792H21.3431L20.8918 57.8635ZM33.7533 65.219C33.7533 70.112 33.7319 71.026 33.6029 71.1336C33.4847 71.2411 32.1739 71.1766 27.7148 70.8862C24.5665 70.6712 21.9556 70.4991 21.9126 70.4991C21.8589 70.4991 21.8266 68.0042 21.8266 64.9609V59.4228H27.79H33.7533V65.219ZM55.3504 60.2293C59.6376 60.6809 63.2586 61.0681 63.3875 61.1003C64.1611 61.2724 64.4083 62.1972 63.8495 62.7672L63.5379 63.079H56.7472H49.9565L49.6449 63.3909C49.3118 63.7243 49.2581 64.0254 49.4622 64.4017C49.7094 64.8749 49.8383 64.8964 51.7509 64.9072H53.5775L55.5223 66.5632C56.5968 67.4773 57.6283 68.3053 57.8002 68.3914C58.2407 68.6172 58.9821 68.6065 59.3797 68.3699C59.5624 68.2623 62.3345 66.2406 65.558 63.8856C68.7814 61.5412 71.5321 59.5626 71.6825 59.5088C72.1015 59.3475 72.7247 59.5841 72.9826 59.9927C73.219 60.3691 73.1975 60.9175 72.9504 61.2186C72.6818 61.5412 59.1863 72.3595 58.7458 72.6068C58.0366 73.0047 57.0158 73.2198 56.253 73.1445C55.7909 73.1015 53.6957 72.4133 49.4408 70.9185C46.0669 69.7356 43.0583 68.7247 42.7575 68.671C42.4566 68.6065 41.7582 68.5634 41.2102 68.5634H40.2002V64.9179V61.2724L41.7905 61.2294C43.5419 61.1756 43.7997 61.1003 45.0354 60.3583C46.0561 59.7239 46.7546 59.4228 47.1843 59.4228C47.3778 59.4228 51.0525 59.7884 55.3504 60.2293ZM38.3521 64.9287L38.3736 69.5313H36.9768H35.58V64.9824C35.58 62.4768 35.6122 60.3906 35.6552 60.3476C35.6982 60.3153 36.3106 60.2938 37.0198 60.3046L38.3199 60.3368L38.3521 64.9287ZM60.884 65.0039C60.8195 65.0685 60.2715 65.4664 59.6591 65.918L58.5523 66.7245L57.5423 65.8535C56.9836 65.3803 56.5323 64.9717 56.5323 64.9502C56.5323 64.9287 57.5316 64.9072 58.7565 64.9072C60.1426 64.9072 60.9377 64.9502 60.884 65.0039Z" fill="white"/>
</svg>
