<svg width="95" height="95" viewBox="0 0 95 95" fill="none" xmlns="http://www.w3.org/2000/svg">
<circle cx="47.5" cy="47.5" r="47.5" fill="#EC6608"/>
<path d="M30.6658 20.6547L24.7276 21.3431L22.7863 20.9464C21.7243 20.7364 20.7194 20.538 20.5595 20.5147C20.2969 20.4797 20.274 20.5264 20.1142 21.3197C20.0228 21.7864 19.9771 22.1947 20.0114 22.2297C20.0342 22.2647 21.0962 22.4981 22.3638 22.7664L24.6477 23.2331L30.8599 22.5214C34.2744 22.1364 37.5289 21.8214 38.0885 21.8214C39.8699 21.8214 41.8569 22.2531 43.4785 22.9998C44.118 23.2914 55.6175 29.9882 55.8801 30.2216C55.9258 30.2682 55.549 30.2099 55.0237 30.0816C53.5163 29.7316 51.3694 29.6849 49.8164 29.9649L48.5259 30.1982L47.2584 29.4399C46.5618 29.0199 45.6596 28.5182 45.2371 28.3082C44.4834 27.9465 44.4834 27.9465 42.3137 27.9115C40.3838 27.8882 40.0983 27.8532 39.7101 27.6432C39.1962 27.3515 39.1277 27.3982 38.6595 28.2849C38.4539 28.6932 38.3626 28.9732 38.4311 29.0432C38.4996 29.1015 40.2696 30.1516 42.3708 31.3883C44.472 32.625 46.3677 33.8033 46.5846 34.025C46.9272 34.3633 46.9843 34.4917 47.03 35.1217C47.0757 35.7283 47.0414 35.8917 46.7902 36.2767C46.4133 36.86 45.8081 37.1517 45.1229 37.0817C44.7004 37.035 43.981 36.6617 41.6171 35.25C39.9727 34.2816 38.5339 33.4883 38.4082 33.4883C38.294 33.4883 37.3691 33.8266 36.3641 34.235C34.1716 35.1333 33.2124 35.355 31.4766 35.355C29.1013 35.355 28.0165 35.0167 25.5384 33.5L24.0082 32.5549H22.0555H20.1027V33.4883V34.4216H21.8042H23.5058L24.9218 35.2733C27.5483 36.8717 28.5303 37.1634 31.4652 37.1634C33.9432 37.1634 34.2858 37.0934 36.8323 36.055L38.2826 35.46L39.2419 36.0083C39.7672 36.3117 40.2011 36.6034 40.2011 36.6617C40.2011 36.72 40.0184 37.1284 39.8014 37.5834C38.0428 41.1301 37.9172 45.3652 39.4474 49.1919C40.6921 52.3187 43.5242 55.2471 46.5732 56.5887C51.6892 58.8288 57.4789 57.8021 61.4529 53.9404C63.5198 51.9337 64.9016 49.4136 65.5068 46.5552C65.7694 45.3185 65.8037 42.4485 65.5639 41.2468C64.9244 37.9451 63.143 34.8883 60.6878 32.8933C60.2881 32.5666 59.9569 32.2049 59.9569 32.0999C59.9569 31.5749 59.5458 30.7466 58.9977 30.1632C58.5523 29.6732 57.8443 29.1949 55.9601 28.0865C54.6126 27.2932 51.6092 25.5315 49.3025 24.1665C44.9288 21.5881 44.1523 21.1797 42.7134 20.7131C41.1832 20.1997 40.3153 20.0597 38.4311 20.013C36.7524 19.9664 36.1129 20.013 30.6658 20.6547ZM44.255 29.9066C44.7575 30.1049 46.2535 30.9683 46.2535 31.0499C46.2535 31.0966 46.1735 31.1666 46.0707 31.2016C45.9566 31.2483 45.4084 31.0033 44.6433 30.5599C43.9581 30.1749 43.3986 29.8249 43.3986 29.8016C43.3986 29.7082 43.9125 29.7782 44.255 29.9066ZM54.8181 31.9483C56.2684 32.3333 57.4674 32.87 58.598 33.6283C61.076 35.2967 62.7661 37.7 63.5769 40.6868C63.8624 41.7135 63.8852 42.0285 63.8966 43.6968C63.8966 45.2485 63.851 45.7385 63.634 46.5902C63.28 48.0486 62.7661 49.2386 61.9782 50.4403C58.6208 55.5621 52.1688 57.3238 46.7788 54.5937C40.9662 51.642 38.5567 44.3618 41.4344 38.4467C41.6514 37.9917 41.8455 37.6184 41.8569 37.595C41.8798 37.5717 43.2273 38.3301 43.3757 38.4584C43.3986 38.4701 43.2273 38.8901 42.9989 39.3801C42.3023 40.8734 42.1082 41.8301 42.0968 43.6968C42.0968 45.0269 42.131 45.5052 42.3366 46.2635C43.901 52.1553 49.7364 55.3754 55.3548 53.4387C58.164 52.482 60.6192 49.9736 61.5556 47.1036C63.4513 41.3635 60.2995 35.4017 54.5326 33.8033C53.2879 33.4533 50.8327 33.4533 49.588 33.8033L48.7543 34.0366L48.5374 33.605C48.4118 33.36 48.1834 33.01 48.0235 32.8116L47.738 32.4616L48.446 32.2166C50.3302 31.5866 53.0138 31.4699 54.8181 31.9483ZM51.1639 36.3467V37.2217H52.0774H52.991V36.335V35.4367L53.5848 35.5183C53.9045 35.565 54.5669 35.7517 55.0351 35.9383C55.8801 36.2767 57.102 37.0234 57.102 37.1984C57.102 37.245 56.8394 37.5484 56.531 37.8634L55.9601 38.4351L56.611 39.1117L57.2619 39.7884L57.8785 39.1701L58.4838 38.5634L58.7693 38.9134C59.3745 39.6601 60.1853 41.7485 60.1853 42.5535C60.1853 42.8101 60.1396 42.8218 59.3288 42.8218H58.4724V43.7552V44.6885H59.3288C60.1396 44.6885 60.1853 44.7002 60.1853 44.9569C60.1853 45.7619 59.3745 47.8502 58.7693 48.5969L58.4838 48.9469L57.8785 48.3403L57.2619 47.7219L56.611 48.3986L55.9601 49.0753L56.531 49.6469C56.8394 49.962 57.102 50.2653 57.102 50.312C57.102 50.487 55.8801 51.2336 55.0351 51.572C54.5669 51.7587 53.9045 51.9453 53.5848 51.992L52.991 52.0737V51.1753V50.2886H52.0774H51.1639V51.1753V52.0737L50.57 51.992C50.2503 51.9453 49.588 51.7587 49.1198 51.572C48.2747 51.2336 47.0528 50.487 47.0528 50.312C47.0528 50.2653 47.3155 49.962 47.6238 49.6469L48.1948 49.0753L47.5439 48.3986L46.893 47.7219L46.2763 48.3403L45.6711 48.9469L45.3856 48.5969C44.7803 47.8502 43.9696 45.7619 43.9696 44.9569C43.9696 44.7002 44.0152 44.6885 44.826 44.6885H45.6825V43.7552V42.8218H44.8146H43.9353L44.0152 42.2618C44.118 41.4685 44.4949 40.3834 44.9174 39.6601C45.2257 39.1234 45.3399 39.0301 45.6711 38.9951C45.9794 38.9601 46.1278 39.0301 46.4704 39.3684L46.893 39.7884L47.5439 39.1117C48.1948 38.4351 48.1948 38.4351 47.9778 38.2251C47.7494 38.0151 47.7494 38.0034 48.1491 37.525C48.3661 37.2684 48.6059 36.825 48.6858 36.5567C48.8 36.125 48.88 36.0317 49.3025 35.8683C49.8963 35.635 50.4444 35.495 50.8555 35.4833L51.1639 35.4717V36.3467Z" fill="white"/>
<path d="M51.1647 41.2153V43.3387L50.3996 44.132L49.623 44.9254L50.2854 45.6021L50.9477 46.2671L51.9641 45.2054L52.9918 44.1437V41.612V39.092H52.0782H51.1647V41.2153Z" fill="white"/>
<path d="M59.7287 57.9787C59.192 58.0954 58.0386 58.5037 57.1593 58.8771L55.5605 59.5537L51.8492 59.6237L48.1378 59.6821L47.4869 60.0087C46.2765 60.6154 45.4885 61.8288 45.4314 63.1588C45.42 63.4621 45.3743 63.7072 45.3401 63.7072C45.3058 63.7072 43.4102 62.6105 41.1263 61.2571C36.7069 58.6671 36.273 58.4687 35.1881 58.6321C33.9434 58.8187 32.8243 59.6821 32.299 60.8488C31.9107 61.7238 31.9335 63.0771 32.3446 63.9405C32.5159 64.2905 32.8243 64.7572 33.0298 64.9555C33.3952 65.3172 45.4314 72.4923 47.1672 73.3907C49.0857 74.3707 51.164 74.9074 53.4479 74.989C54.8069 75.0357 55.7433 74.954 61.1561 74.3357L67.3341 73.6357L71.034 74.0907C73.0781 74.3357 74.7568 74.5224 74.7682 74.5107C74.8253 74.464 75.0308 72.7723 74.9966 72.7373C74.9738 72.714 73.2494 72.4807 71.1596 72.224L67.3683 71.7456L61.179 72.4573C57.7759 72.8423 54.4985 73.1573 53.8933 73.1573C51.9634 73.1573 49.8051 72.644 48.0808 71.769C46.8474 71.139 34.7085 63.9638 34.3887 63.6605C34.2403 63.5321 34.0461 63.2521 33.9662 63.0421C33.361 61.6071 34.7998 60.0204 36.1816 60.5804C36.41 60.6738 38.8195 62.0505 41.5145 63.6488C44.221 65.2472 46.7561 66.6705 47.1672 66.8222C47.898 67.0789 48.0122 67.0789 53.0254 67.0906H58.1299V66.1572V65.2238H53.4251C48.903 65.2238 48.7088 65.2122 48.2406 64.9788C46.916 64.3255 46.916 62.3305 48.2406 61.7121C48.6631 61.5138 49.04 61.4904 52.1575 61.4904H55.6176L57.2963 60.8021C59.8315 59.7754 60.0256 59.7287 61.9555 59.6587C64.6048 59.5654 65.507 59.8221 68.1791 61.4321L69.8235 62.4238H72.3701H74.9167V61.4904V60.5571H72.6213H70.326L68.8529 59.6704C67.0943 58.6087 66.0437 58.177 64.6962 57.932C63.3258 57.687 60.9734 57.7104 59.7287 57.9787Z" fill="white"/>
</svg>
